<svg width="50" height="69" viewBox="0 0 50 69" fill="none" xmlns="http://www.w3.org/2000/svg">
<path d="M0 55.3326L8.45693 1.31234C8.52101 0.913019 8.74007 0.555114 9.06651 0.316374C9.39295 0.0776343 9.80041 -0.0226562 10.2004 0.0372899C10.4366 0.0806155 10.6605 0.175325 10.8561 0.314718C11.0517 0.454111 11.2142 0.634783 11.3323 0.843952L20.0625 17.1463L23.5233 10.5109C23.618 10.3288 23.7477 10.1672 23.9049 10.0353C24.0621 9.90335 24.2438 9.80373 24.4396 9.7421C24.6353 9.68047 24.8413 9.65804 25.0458 9.6761C25.2502 9.69416 25.4491 9.75235 25.631 9.84733C25.9067 10.0063 26.1356 10.2352 26.2946 10.5109L49.8439 55.3326H0Z" fill="#FFA000"/>
<path d="M29.1959 34.2944L20.0885 17.1073L0 55.3326L29.1959 34.2944Z" fill="#F57C00"/>
<path d="M49.8959 55.3327L43.3906 15.3119C43.3234 14.902 43.0971 14.5353 42.7608 14.2916C42.4245 14.0479 42.0055 13.947 41.5951 14.0108C41.2735 14.0566 40.9761 14.2075 40.7494 14.4402L0 55.3327L22.5735 68.0571C23.2694 68.4386 24.0502 68.6386 24.8439 68.6386C25.6375 68.6386 26.4183 68.4386 27.1142 68.0571L49.8959 55.3327Z" fill="#FFCA28"/>
<path d="M43.4556 15.3509C43.3885 14.9411 43.1621 14.5744 42.8258 14.3307C42.4895 14.087 42.0705 13.9861 41.6602 14.0499C41.3377 14.0927 41.0394 14.2442 40.8145 14.4792L32.6958 22.5849L26.3466 10.4589C26.2519 10.2769 26.1222 10.1152 25.965 9.98332C25.8078 9.85141 25.6261 9.75179 25.4303 9.69016C25.2346 9.62853 25.0286 9.6061 24.8241 9.62416C24.6197 9.64221 24.4208 9.7004 24.2389 9.79539C23.9632 9.95434 23.7343 10.1832 23.5753 10.4589L20.1145 17.0944L11.3843 0.80502C11.2864 0.626129 11.1542 0.468339 10.9951 0.340713C10.8361 0.213086 10.6534 0.118136 10.4575 0.0613155C10.2617 0.00449533 10.0565 -0.0130756 9.85388 0.00961163C9.65122 0.0322989 9.45504 0.0947978 9.27661 0.193518C9.06479 0.306587 8.88114 0.465868 8.73925 0.659559C8.59736 0.853251 8.50087 1.07639 8.45693 1.31244L0 55.3327L0.234192 55.4498L32.7609 22.9232L40.8795 14.8175C41.0228 14.6688 41.1945 14.5504 41.3845 14.4696C41.5746 14.3888 41.7789 14.3471 41.9854 14.3471C42.1919 14.3471 42.3963 14.3888 42.5863 14.4696C42.7763 14.5504 42.9481 14.6688 43.0913 14.8175C43.3317 15.0438 43.4839 15.3481 43.5207 15.6762L49.9219 55.3067H50L43.4556 15.3509ZM0.078064 55.2547L8.45693 1.70276C8.48395 1.50196 8.55078 1.30857 8.6535 1.13393C8.75623 0.959295 8.89278 0.806921 9.05516 0.685744C9.21754 0.564567 9.40247 0.477024 9.59912 0.428247C9.79577 0.37947 10.0002 0.370441 10.2004 0.401689C10.4375 0.442386 10.6625 0.536051 10.8585 0.675713C11.0545 0.815375 11.2164 0.997437 11.3323 1.20835L20.0625 17.5107L23.5233 10.8753C23.6167 10.692 23.7457 10.5291 23.9027 10.3962C24.0597 10.2633 24.2417 10.163 24.4379 10.1013C24.6342 10.0395 24.8407 10.0174 25.0456 10.0364C25.2504 10.0554 25.4495 10.115 25.631 10.2117C25.9067 10.3707 26.1356 10.5996 26.2946 10.8753L32.5267 22.728L0.078064 55.2547Z" fill="white" fill-opacity="0.2"/>
<path opacity="0.2" d="M27.1143 67.6148C26.4168 67.9986 25.6335 68.1998 24.8374 68.1998C24.0413 68.1998 23.258 67.9986 22.5605 67.6148L0.0390625 55.0465V55.3977L22.5735 68.0571C23.2695 68.4386 24.0503 68.6386 24.8439 68.6386C25.6375 68.6386 26.4184 68.4386 27.1143 68.0571L49.8829 55.3847V55.0334L27.1143 67.6148Z" fill="#A52714"/>
<path d="M43.4556 15.3509C43.3885 14.9411 43.1621 14.5744 42.8258 14.3307C42.4895 14.087 42.0705 13.9861 41.6602 14.0499C41.3377 14.0927 41.0394 14.2442 40.8145 14.4792L32.6958 22.5849L26.3466 10.4589C26.2519 10.2769 26.1222 10.1152 25.965 9.98332C25.8078 9.85141 25.6261 9.75179 25.4303 9.69016C25.2346 9.62853 25.0286 9.6061 24.8241 9.62416C24.6197 9.64222 24.4208 9.7004 24.2389 9.79539C23.9632 9.95434 23.7343 10.1832 23.5753 10.4589L20.1145 17.0944L11.3843 0.80502C11.2864 0.626129 11.1542 0.468339 10.9951 0.340713C10.8361 0.213086 10.6534 0.118136 10.4575 0.0613155C10.2617 0.00449533 10.0565 -0.0130756 9.85388 0.00961163C9.65122 0.0322989 9.45504 0.0947978 9.27661 0.193518C9.06479 0.306587 8.88114 0.465868 8.73925 0.659559C8.59736 0.853251 8.50087 1.07639 8.45693 1.31244L0 55.3327L22.5735 68.0572C23.2694 68.4387 24.0502 68.6387 24.8439 68.6387C25.6375 68.6387 26.4183 68.4387 27.1142 68.0572L49.8829 55.3848L43.4556 15.3509Z" fill="url(#paint0_linear_910_695)"/>
<defs>
<linearGradient id="paint0_linear_910_695" x1="-1.32943" y1="12.0669" x2="50.7436" y2="64.1747" gradientUnits="userSpaceOnUse">
<stop stop-color="white" stop-opacity="0.1"/>
<stop offset="1" stop-color="white" stop-opacity="0"/>
</linearGradient>
</defs>
</svg>
