<svg width="50" height="50" viewBox="0 0 50 50" fill="none" xmlns="http://www.w3.org/2000/svg">
<g clip-path="url(#clip0_113_1302)">
<path d="M50 0H0V50H50V0Z" fill="#F7DF1E"/>
<path d="M33.5873 39.0627C34.5944 40.7072 35.9047 41.9159 38.2222 41.9159C40.169 41.9159 41.4127 40.9429 41.4127 39.5984C41.4127 37.9873 40.1349 37.4167 37.992 36.4794L36.8174 35.9754C33.4269 34.531 31.1746 32.7214 31.1746 28.896C31.1746 25.3722 33.8595 22.6897 38.0555 22.6897C41.0428 22.6897 43.1904 23.7294 44.7381 26.4516L41.0793 28.8008C40.2738 27.3564 39.4047 26.7873 38.0555 26.7873C36.6793 26.7873 35.8071 27.6603 35.8071 28.8008C35.8071 30.2103 36.6801 30.781 38.696 31.654L39.8706 32.1572C43.8627 33.8691 46.1166 35.6143 46.1166 39.5381C46.1166 43.7683 42.7936 46.0857 38.3309 46.0857C33.9674 46.0857 31.1484 44.0064 29.769 41.281L33.5873 39.0627ZM16.9896 39.4699C17.7277 40.7794 18.3992 41.8865 20.0135 41.8865C21.5571 41.8865 22.5309 41.2826 22.5309 38.9341V22.9579H27.2293V38.9976C27.2293 43.8627 24.3769 46.077 20.2135 46.077C16.4515 46.077 14.273 44.1302 13.165 41.7853L16.9896 39.4699Z" fill="black"/>
</g>
<defs>
<clipPath id="clip0_113_1302">
<rect width="50" height="50" fill="white"/>
</clipPath>
</defs>
</svg>
