<svg width="50" height="49" viewBox="0 0 50 49" fill="none" xmlns="http://www.w3.org/2000/svg">
<path d="M3.17526 11.301C-1.25157 17.6569 -0.700488 25.9259 2.68123 32.6792C2.76163 32.8411 2.84591 33.0005 2.92889 33.1598C2.98207 33.2608 3.03198 33.3644 3.08709 33.4642C3.11822 33.5237 3.15321 33.582 3.18563 33.639C3.24332 33.7465 3.30233 33.8489 3.36197 33.9538C3.46701 34.139 3.57463 34.3229 3.68484 34.5069C3.74579 34.6079 3.80609 34.7089 3.86898 34.81C3.99086 35.0068 4.11599 35.2011 4.24371 35.3954C4.29688 35.4783 4.34874 35.5612 4.4032 35.6415C4.57955 35.9045 4.75978 36.1661 4.94584 36.4239C4.95046 36.4305 4.95553 36.4381 4.96137 36.4445C4.99058 36.486 5.02298 36.5261 5.05279 36.5676C5.21358 36.7891 5.37955 37.008 5.54747 37.2243C5.60908 37.3033 5.67129 37.3823 5.73354 37.4613C5.88331 37.6492 6.03566 37.8357 6.19061 38.0222C6.2483 38.0921 6.30666 38.1621 6.36501 38.2307C6.57313 38.4755 6.78513 38.719 7.00166 38.9573C7.00564 38.9611 7.01075 38.9664 7.0146 38.9703C7.0237 38.9806 7.03146 38.9871 7.03923 38.9975C7.25058 39.228 7.46712 39.4534 7.68628 39.6788C7.75435 39.7487 7.82373 39.8187 7.89375 39.8873C8.06361 40.0583 8.23606 40.2267 8.41047 40.3938C8.48113 40.4611 8.55115 40.5298 8.62182 40.5945C8.85457 40.8134 9.08992 41.0285 9.3298 41.2383C9.33378 41.242 9.3369 41.2449 9.34082 41.2474C9.38165 41.2837 9.42381 41.3173 9.46401 41.3523C9.67536 41.5349 9.89061 41.7163 10.1071 41.895C10.1953 41.9663 10.2848 42.0362 10.3736 42.1075C10.5506 42.2486 10.7295 42.3885 10.9098 42.5258C11.0051 42.5984 11.1004 42.6709 11.1963 42.7434C11.3954 42.8898 11.5957 43.0336 11.798 43.1748C11.8719 43.2279 11.9432 43.2797 12.0171 43.3302C12.0378 43.3445 12.0567 43.3587 12.0774 43.373C12.2693 43.5051 12.4657 43.632 12.6616 43.759C12.7458 43.8147 12.8295 43.8729 12.9144 43.9273C13.2152 44.1177 13.5206 44.3056 13.8292 44.4869C13.9128 44.5349 13.9978 44.5815 14.082 44.6294C14.309 44.7602 14.5372 44.8884 14.7686 45.0141C14.8937 45.0814 15.0221 45.1449 15.1485 45.2097C15.3119 45.2952 15.474 45.3819 15.64 45.4648C15.6775 45.483 15.7165 45.5011 15.7534 45.5192C15.8202 45.5516 15.8876 45.5827 15.9544 45.6164C16.2118 45.7394 16.4711 45.8599 16.7331 45.9765C16.7888 46.0011 16.8426 46.0257 16.8978 46.0503C17.1979 46.1811 17.5007 46.3067 17.8061 46.4272C17.8793 46.457 17.9532 46.4855 18.0271 46.514C18.3098 46.6228 18.5964 46.7303 18.8843 46.8313C18.9206 46.8443 18.9556 46.8559 18.9919 46.8688C19.3076 46.9789 19.6266 47.0813 19.9475 47.181C20.024 47.203 20.1012 47.2276 20.1783 47.2496C20.5051 47.3481 20.828 47.466 21.1651 47.5281C42.5743 51.4282 48.7931 34.6762 48.7931 34.6762C43.5701 41.4736 34.299 43.2663 25.5149 41.2704C25.1823 41.1952 24.8594 41.0916 24.5346 40.9958C24.4523 40.9711 24.3712 40.9466 24.2902 40.9219C23.9732 40.8248 23.6587 40.7225 23.3462 40.615C23.3034 40.5995 23.26 40.5839 23.2166 40.5683C22.9365 40.4699 22.6596 40.3663 22.3841 40.26C22.3063 40.229 22.2285 40.1992 22.1507 40.1681C21.8486 40.0489 21.5484 39.9246 21.2521 39.795C21.1912 39.7691 21.1328 39.7419 21.0725 39.716C20.8177 39.6007 20.5655 39.4842 20.3146 39.3637C20.242 39.3288 20.1694 39.2951 20.0955 39.2588C19.8984 39.1628 19.7035 39.0604 19.5091 38.9606C19.379 38.8922 19.2468 38.8275 19.1177 38.7558C18.8803 38.629 18.6471 38.4969 18.415 38.3622C18.3364 38.3181 18.2568 38.2757 18.1776 38.2301C17.8691 38.0486 17.5642 37.8608 17.2625 37.6703C17.1791 37.6173 17.0979 37.5605 17.0156 37.5059C16.7967 37.3648 16.579 37.221 16.3644 37.0735C16.2932 37.0252 16.2247 36.9737 16.1546 36.926C15.9475 36.7796 15.7425 36.6315 15.5391 36.4814C15.4467 36.413 15.3558 36.344 15.2661 36.2755C15.0797 36.1328 14.8943 35.9891 14.7105 35.8416C14.6275 35.7755 14.5446 35.7094 14.4629 35.6434C14.2295 35.4517 13.9987 35.2587 13.7711 35.0605C13.7471 35.0398 13.7212 35.0191 13.6952 34.9971C13.4489 34.7808 13.207 34.5593 12.9678 34.3365C12.8984 34.2704 12.831 34.2057 12.7629 34.1396C12.586 33.9712 12.4116 33.8015 12.2404 33.628C12.1717 33.5593 12.1029 33.492 12.0355 33.4233C11.8177 33.2005 11.6037 32.9751 11.3943 32.7459C11.3839 32.7342 11.3729 32.7239 11.3626 32.7122C11.1408 32.47 10.9243 32.2226 10.7123 31.9726C10.6546 31.904 10.5988 31.8379 10.5418 31.7706C10.3836 31.5802 10.2267 31.3872 10.0737 31.1929C10.0163 31.1228 9.95894 31.0512 9.90211 30.9791C9.71781 30.7403 9.53777 30.5021 9.36144 30.2602C4.48459 23.6151 2.7326 14.45 6.63045 6.92313" fill="#0868AC"/>
<path d="M16.917 5.94617C13.7156 10.5483 13.8893 16.7088 16.3867 21.576C16.8055 22.392 17.2762 23.1834 17.8026 23.9373C18.2824 24.6238 18.814 25.4411 19.4507 25.9929C19.6815 26.2468 19.9227 26.4942 20.169 26.7377C20.2312 26.8011 20.2948 26.862 20.3583 26.9242C20.5976 27.156 20.8407 27.384 21.0922 27.6055C21.1026 27.6133 21.1117 27.6236 21.122 27.6315C21.1247 27.6341 21.1273 27.6352 21.1291 27.6381C21.4073 27.8816 21.6944 28.1161 21.9862 28.3466C22.0511 28.3958 22.1153 28.4476 22.1807 28.4981C22.4731 28.7222 22.7714 28.9424 23.0774 29.1522C23.0865 29.1589 23.0942 29.1652 23.1033 29.1717C23.2382 29.2649 23.3756 29.3517 23.5124 29.4411C23.5779 29.4838 23.6402 29.5292 23.7063 29.5693C23.9248 29.7092 24.1458 29.8452 24.3708 29.976C24.4026 29.9954 24.4337 30.0123 24.4648 30.0304C24.6587 30.1418 24.8551 30.2519 25.0522 30.3581C25.1209 30.3969 25.191 30.4306 25.261 30.4669C25.3971 30.5381 25.5333 30.6107 25.672 30.6793C25.6927 30.6897 25.7142 30.6988 25.7342 30.7079C26.0163 30.8465 26.3009 30.9799 26.5913 31.1068C26.6535 31.134 26.7178 31.1586 26.7807 31.1845C27.0128 31.283 27.2475 31.3788 27.4834 31.4695C27.5833 31.5071 27.6844 31.5433 27.7842 31.5796C27.9982 31.6586 28.2128 31.7311 28.4293 31.8037C28.5272 31.8348 28.6232 31.8671 28.7211 31.8969C29.029 31.9928 29.3331 32.1132 29.654 32.1664C46.1839 34.9019 50 22.1889 50 22.1889C46.5599 27.1382 39.8982 29.4993 32.7892 27.6562C32.4735 27.5733 32.1623 27.4826 31.853 27.3855C31.7584 27.357 31.6656 27.3259 31.5716 27.2948C31.3519 27.2236 31.1334 27.1484 30.9168 27.0694C30.8176 27.0331 30.7184 26.9969 30.6212 26.9593C30.3839 26.8687 30.1492 26.7741 29.9165 26.6757C29.8529 26.6485 29.7887 26.6239 29.7265 26.5954C29.4347 26.4684 29.1475 26.335 28.8642 26.1951C28.7183 26.1239 28.5751 26.0488 28.4318 25.9749C28.3488 25.9322 28.2652 25.8894 28.1822 25.8467C27.998 25.747 27.8152 25.6433 27.635 25.5384C27.5922 25.5138 27.5474 25.4905 27.504 25.4646C27.2803 25.3338 27.0599 25.1991 26.8414 25.0605C26.774 25.0177 26.7091 24.9711 26.6417 24.9271C26.4978 24.8338 26.3538 24.7392 26.2125 24.6434C25.9078 24.4335 25.6115 24.2134 25.3191 23.9906C25.2517 23.9374 25.1843 23.8856 25.1181 23.8325C22.0063 21.3782 19.5398 18.0247 18.3671 14.2217C17.1382 10.2777 17.4032 5.85026 19.5324 2.25742" fill="#0868AC"/>
<path d="M28.4745 1.94532C26.5872 4.7198 26.4018 8.16542 27.7114 11.2298C29.0924 14.4823 31.9224 17.034 35.2251 18.2436C35.3613 18.2942 35.4974 18.3395 35.6355 18.3861C35.6958 18.4043 35.7554 18.425 35.8164 18.4431C36.0109 18.504 36.2041 18.5752 36.4051 18.6128C45.5323 20.3743 48.0078 13.9342 48.6669 12.9863C46.4983 16.1054 42.8539 16.854 38.3824 15.7699C38.0292 15.6839 37.641 15.5566 37.3005 15.4362C36.864 15.2807 36.4338 15.1035 36.0158 14.903C35.2218 14.5221 34.4649 14.0594 33.7633 13.5299C29.7619 10.4973 27.2763 4.71176 29.8872 0" fill="#0868AC"/>
</svg>
 