<svg width="50" height="27" viewBox="0 0 50 27" fill="none" xmlns="http://www.w3.org/2000/svg">
<g clip-path="url(#clip0_113_1436)">
<path d="M0.703125 13.4921C0.703125 20.5549 11.5815 26.2807 25 26.2807C38.4186 26.2807 49.2971 20.5549 49.2971 13.4921C49.2971 6.42925 38.4186 0.703444 25 0.703444C11.5815 0.703444 0.703125 6.42925 0.703125 13.4921Z" fill="url(#paint0_radial_113_1436)"/>
<path d="M25.0002 25.3312C37.8946 25.3312 48.348 20.0306 48.348 13.492C48.348 6.95356 37.8946 1.65289 25.0002 1.65289C12.1057 1.65289 1.65234 6.95356 1.65234 13.492C1.65234 20.0306 12.1057 25.3312 25.0002 25.3312Z" fill="#777BB3"/>
<path d="M13.9039 14.9599C14.9642 14.9599 15.7557 14.7643 16.2565 14.3786C16.752 13.9969 17.0942 13.3356 17.2735 12.4131C17.4408 11.5508 17.3771 10.9488 17.0843 10.6239C16.7849 10.292 16.1375 10.1237 15.1603 10.1237H13.4659L12.5266 14.9599H13.9039ZM8.36195 20.9173C8.2833 20.9173 8.20861 20.8821 8.1586 20.8212C8.10851 20.7605 8.08821 20.6805 8.10324 20.6032L10.5927 7.78713C10.6168 7.66323 10.7253 7.57372 10.8515 7.57372H16.2169C17.9031 7.57372 19.1582 8.03184 19.9471 8.93551C20.7402 9.84393 20.9851 11.1137 20.675 12.7096C20.5488 13.3598 20.3318 13.9636 20.0299 14.5042C19.7277 15.0454 19.3283 15.5462 18.8425 15.9929C18.2611 16.5373 17.6031 16.9321 16.8885 17.1645C16.1852 17.3937 15.2819 17.5099 14.2039 17.5099H12.0314L11.4109 20.7038C11.3869 20.8278 11.2784 20.9173 11.1522 20.9173H8.36195Z" fill="black"/>
<path d="M13.6832 10.3875H15.1603C16.3397 10.3875 16.7494 10.6464 16.8886 10.8007C17.1196 11.057 17.1632 11.5972 17.0147 12.363C16.8479 13.2203 16.5388 13.8282 16.0957 14.1696C15.6421 14.519 14.9046 14.6961 13.9039 14.6961H12.8463L13.6832 10.3875ZM16.2169 7.30988H10.8514C10.599 7.30988 10.382 7.48891 10.3339 7.73679L7.84442 20.5528C7.81436 20.7075 7.85496 20.8675 7.95506 20.9891C8.05524 21.1107 8.20446 21.181 8.36194 21.181H11.1521C11.4046 21.181 11.6216 21.002 11.6697 20.7541L12.2487 17.7737H14.2039C15.3096 17.7737 16.2404 17.653 16.9703 17.4152C17.7208 17.1712 18.4114 16.7575 19.0226 16.1856C19.5281 15.7202 19.9445 15.1979 20.2599 14.633C20.5755 14.0678 20.8022 13.4376 20.9338 12.7599C21.2603 11.08 20.9951 9.73485 20.1456 8.76198C19.3044 7.79843 17.9825 7.30988 16.2169 7.30988ZM12.2067 15.2237H13.9039C15.0288 15.2237 15.8668 15.0117 16.4173 14.5876C16.968 14.1634 17.3394 13.4555 17.5323 12.4634C17.717 11.511 17.6329 10.8388 17.28 10.4473C16.9268 10.0557 16.2203 9.85988 15.1603 9.85988H13.2486L12.2067 15.2237ZM16.2169 7.83747C17.831 7.83747 19.0084 8.2613 19.7486 9.10904C20.4886 9.95678 20.7115 11.1401 20.4162 12.6593C20.2947 13.2851 20.0891 13.8572 19.7997 14.3756C19.51 14.8943 19.1317 15.3686 18.6641 15.7987C18.107 16.3204 17.488 16.6921 16.807 16.9135C16.1259 17.1356 15.2585 17.2461 14.2039 17.2461H11.8139L11.1521 20.6534H8.36194L10.8514 7.83747H16.2169Z" fill="white"/>
<path d="M27.0726 17.5099C26.9939 17.5099 26.9193 17.4748 26.8692 17.4139C26.8191 17.3532 26.7988 17.2732 26.8138 17.1958L27.915 11.5253C28.0198 10.986 27.9939 10.5989 27.8423 10.4353C27.7495 10.3354 27.4708 10.1677 26.6466 10.1677H24.6515L23.267 17.2964C23.2429 17.4204 23.1344 17.5099 23.0082 17.5099H20.24C20.1612 17.5099 20.0866 17.4748 20.0365 17.4139C19.9864 17.3532 19.9661 17.2731 19.9812 17.1958L22.4706 4.3798C22.4947 4.2559 22.6032 4.16639 22.7294 4.16639H25.4976C25.5764 4.16639 25.651 4.20156 25.7011 4.26232C25.7512 4.32317 25.7715 4.4031 25.7564 4.48048L25.1557 7.57372H27.3019C28.9369 7.57372 30.0456 7.86213 30.6913 8.45549C31.3495 9.06081 31.5549 10.0287 31.3018 11.3325L30.1436 17.2964C30.1195 17.4204 30.011 17.5099 29.8847 17.5099H27.0726Z" fill="black"/>
<path d="M25.4976 3.90255H22.7294C22.4769 3.90255 22.26 4.08158 22.2118 4.32945L19.7223 17.1455C19.6923 17.3002 19.7329 17.4601 19.8331 17.5817C19.9333 17.7033 20.0825 17.7737 20.24 17.7737H23.0082C23.2605 17.7737 23.4776 17.5947 23.5258 17.3468L24.8688 10.4314H26.6465C27.4694 10.4314 27.642 10.6073 27.649 10.6149C27.6989 10.6686 27.7645 10.9174 27.6562 11.4749L26.555 17.1455C26.5249 17.3002 26.5655 17.4601 26.6657 17.5817C26.7659 17.7033 26.9151 17.7737 27.0726 17.7737H29.8847C30.1371 17.7737 30.3542 17.5947 30.4023 17.3468L31.5605 11.3828C31.8323 9.9829 31.5998 8.93274 30.8697 8.26129C30.173 7.62107 29.0059 7.30988 27.3019 7.30988H25.4754L26.0152 4.53082C26.0452 4.37615 26.0047 4.21611 25.9045 4.09459C25.8043 3.97298 25.6551 3.90255 25.4976 3.90255ZM25.4976 4.43013L24.8358 7.83747H27.3019C28.8535 7.83747 29.9238 8.10847 30.5129 8.64977C31.1019 9.19143 31.2784 10.0691 31.043 11.2823L29.8847 17.2461H27.0726L28.1738 11.5756C28.2991 10.9305 28.2531 10.4905 28.0355 10.2559C27.8178 10.0213 27.3548 9.90385 26.6465 9.90385H24.4341L23.0082 17.2461H20.24L22.7294 4.43013H25.4976Z" fill="white"/>
<path d="M35.6817 14.9599C36.742 14.9599 37.5335 14.7643 38.0343 14.3786C38.5298 13.997 38.872 13.3357 39.0515 12.4131C39.2187 11.5508 39.155 10.9488 38.8621 10.6239C38.5627 10.292 37.9154 10.1237 36.9381 10.1237H35.2437L34.3044 14.9599H35.6817ZM30.1399 20.9173C30.0612 20.9173 29.9865 20.8821 29.9365 20.8212C29.8864 20.7605 29.866 20.6805 29.8811 20.6032L32.3705 7.78713C32.3947 7.66323 32.5031 7.57372 32.6294 7.57372H37.9947C39.681 7.57372 40.936 8.03184 41.725 8.93551C42.5181 9.84384 42.763 11.1137 42.4529 12.7096C42.3266 13.3598 42.1096 13.9636 41.8077 14.5042C41.5055 15.0454 41.1061 15.5462 40.6204 15.9929C40.039 16.5373 39.3809 16.9321 38.6663 17.1645C37.963 17.3937 37.0598 17.5099 35.9817 17.5099H33.8091L33.1889 20.7038C33.1648 20.8278 33.0563 20.9173 32.93 20.9173H30.1399Z" fill="black"/>
<path d="M35.4612 10.3875H36.9383C38.1177 10.3875 38.5274 10.6464 38.6666 10.8007C38.8976 11.057 38.9412 11.5972 38.7927 12.3629C38.6259 13.2203 38.3167 13.8282 37.8737 14.1696C37.42 14.519 36.6826 14.6961 35.6819 14.6961H34.6244L35.4612 10.3875ZM37.9949 7.30988H32.6295C32.3771 7.30988 32.1601 7.48891 32.1119 7.73679L29.6225 20.5528C29.5924 20.7075 29.633 20.8675 29.7331 20.9891C29.8333 21.1107 29.9825 21.181 30.14 21.181H32.9302C33.1826 21.181 33.3996 21.002 33.4478 20.7541L34.0267 17.7737H35.9819C37.0876 17.7737 38.0184 17.653 38.7482 17.4152C39.4988 17.1712 40.1896 16.7574 40.8008 16.1854C41.3062 15.7201 41.7224 15.1979 42.0379 14.633C42.3535 14.0678 42.5802 13.4376 42.7118 12.7599C43.0383 11.0799 42.773 9.73476 41.9236 8.76189C41.0824 7.79843 39.7606 7.30988 37.9949 7.30988ZM33.9847 15.2237H35.6819C36.8068 15.2237 37.6447 15.0117 38.1953 14.5876C38.7461 14.1634 39.1173 13.4555 39.3103 12.4634C39.495 11.511 39.4109 10.8388 39.058 10.4473C38.7047 10.0557 37.9983 9.85988 36.9383 9.85988H35.0266L33.9847 15.2237ZM37.9949 7.83747C39.6089 7.83747 40.7864 8.2613 41.5266 9.10904C42.2667 9.95678 42.4895 11.1401 42.1942 12.6593C42.0726 13.2851 41.8671 13.8572 41.5777 14.3756C41.288 14.8943 40.9096 15.3686 40.4421 15.7987C39.885 16.3204 39.266 16.6921 38.585 16.9135C37.9039 17.1356 37.0364 17.2461 35.9819 17.2461H33.5919L32.9302 20.6534H30.14L32.6295 7.83747H37.9949Z" fill="white"/>
</g>
<defs>
<radialGradient id="paint0_radial_113_1436" cx="0" cy="0" r="1" gradientUnits="userSpaceOnUse" gradientTransform="translate(15.2911 5.19953) scale(31.9053 31.9241)">
<stop stop-color="#AEB2D5"/>
<stop offset="0.3" stop-color="#AEB2D5"/>
<stop offset="0.75" stop-color="#484C89"/>
<stop offset="1" stop-color="#484C89"/>
</radialGradient>
<clipPath id="clip0_113_1436">
<rect width="50" height="26.9841" fill="white"/>
</clipPath>
</defs>
</svg>
