<svg width="50" height="50" viewBox="0 0 50 50" fill="none" xmlns="http://www.w3.org/2000/svg">
<path d="M24.7022 0.000398257C22.6408 0.00974083 20.672 0.183691 18.9394 0.487102C13.8355 1.37865 12.909 3.24539 12.909 6.68746V11.2337H24.9693V12.749H8.38312C4.87786 12.749 1.8089 14.8328 0.849033 18.7968C-0.258365 23.3404 -0.307392 26.1756 0.849033 30.9199C1.70634 34.4514 3.75337 36.9676 7.25863 36.9676H11.4053V31.5178C11.4053 27.5806 14.8494 24.1073 18.9394 24.1073H30.9849C34.3386 24.1073 37.0153 21.3766 37.0153 18.0458V6.6879C37.0153 3.45493 34.2581 1.0263 30.9854 0.487102C28.9136 0.145876 26.764 -0.00894431 24.7022 0.000398257ZM18.1801 3.6569C19.4261 3.6569 20.4431 4.67925 20.4431 5.93694C20.4431 7.18973 19.4261 8.20273 18.1806 8.20273C16.9301 8.20273 15.9172 7.18973 15.9172 5.93694C15.9172 4.67925 16.9301 3.6569 18.1801 3.6569Z" fill="url(#paint0_linear_113_1592)"/>
<path d="M38.5194 12.749V18.0458C38.5194 22.1525 34.9993 25.6088 30.9853 25.6088H18.9394C15.6396 25.6088 12.9089 28.4023 12.9089 31.6704V43.0292C12.9089 46.2617 15.7512 48.1631 18.9394 49.0907C22.7568 50.2007 26.4177 50.4013 30.9849 49.0907C34.0215 48.221 37.0153 46.4712 37.0153 43.0292V38.4829H24.9693V36.9676H43.0453C46.5505 36.9676 47.8567 34.5492 49.0757 30.9199C50.3347 27.1833 50.2811 23.5899 49.0757 18.7968C48.2094 15.3458 46.555 12.749 43.0453 12.749H38.5194ZM31.7441 41.5134C32.9946 41.5134 34.0075 42.5269 34.0075 43.7797C34.0075 45.0374 32.9946 46.0597 31.7441 46.0597C30.4982 46.0597 29.4817 45.0374 29.4817 43.7797C29.4817 42.5269 30.4982 41.5134 31.7441 41.5134Z" fill="url(#paint1_linear_113_1592)"/>
<defs>
<linearGradient id="paint0_linear_113_1592" x1="-0.000123701" y1="0.000155157" x2="27.5518" y2="23.7375" gradientUnits="userSpaceOnUse">
<stop stop-color="#5A9FD4"/>
<stop offset="1" stop-color="#306998"/>
</linearGradient>
<linearGradient id="paint1_linear_113_1592" x1="31.4543" y1="43.3976" x2="21.6219" y2="29.4675" gradientUnits="userSpaceOnUse">
<stop stop-color="#FFD43B"/>
<stop offset="1" stop-color="#FFE873"/>
</linearGradient>
</defs>
</svg>
