<svg width="50" height="38" viewBox="0 0 50 38" fill="none" xmlns="http://www.w3.org/2000/svg">
<path d="M43.0456 21.5231C41.2972 21.5331 39.7836 21.9529 38.5135 22.5783C38.0444 21.6502 37.5754 20.8398 37.4976 20.2344C37.4097 19.5312 37.302 19.1014 37.4097 18.2611C37.5175 17.4208 38.0059 16.2292 38.0059 16.1321C37.9959 16.0443 37.8994 15.6145 36.8921 15.6045C35.8848 15.5945 35.0159 15.8001 34.9188 16.0702C34.7445 16.558 34.6043 17.0573 34.499 17.5645C34.3234 18.4826 32.4871 21.736 31.4419 23.4445C31.0999 22.7806 30.8072 22.1938 30.7486 21.7254C30.6608 21.0221 30.553 20.5924 30.6608 19.7521C30.7686 18.9118 31.2569 17.7202 31.2569 17.6231C31.2469 17.5352 31.1505 17.1054 30.1432 17.0955C29.1359 17.0855 28.267 17.2911 28.1699 17.5612C28.0727 17.8313 27.965 18.45 27.7507 19.0555C27.5458 19.6543 25.1041 25.0919 24.4687 26.507C24.1467 27.2295 23.87 27.8063 23.6571 28.1969C23.4442 28.5874 23.6471 28.2262 23.6278 28.2654L23.355 28.783V28.793C23.2179 29.0372 23.0716 29.272 23.0024 29.272C22.9538 29.272 22.856 28.6174 23.0223 27.7192C23.3836 25.8344 24.2625 22.8943 24.2532 22.7866C24.2532 22.738 24.4195 22.221 23.6877 21.9562C22.9744 21.6928 22.721 22.1319 22.6631 22.1319C22.6052 22.1319 22.5566 22.2882 22.5566 22.2882C22.5566 22.2882 23.3483 18.977 21.0424 18.977C19.5966 18.977 17.604 20.5498 16.618 21.9855L11.6368 24.7106L11.5304 24.5935C8.73607 21.6143 3.56992 19.5039 3.78481 15.5C3.86265 14.045 4.37029 10.2062 13.7086 5.55694C21.3564 1.74802 27.4806 2.79257 28.5451 5.11784C30.0594 8.43775 25.2731 14.6119 17.3226 15.5007C14.2954 15.8427 12.7027 14.6704 12.3022 14.2313C11.883 13.7656 11.8231 13.7523 11.6674 13.8408C11.4133 13.9778 11.5696 14.3876 11.6674 14.6325C11.9016 15.2479 12.8783 16.3423 14.5389 16.8879C15.994 17.3669 19.5487 17.6304 23.8467 15.9698C28.6589 14.0836 32.4192 8.91411 31.3161 4.58625C30.1918 0.181212 22.8866 -1.26385 15.9807 1.18783C11.869 2.65352 7.41543 4.9382 4.21128 7.9361C0.402361 11.4915 -0.203739 14.5972 0.0504106 15.8866C0.939269 20.4872 7.27837 23.4858 9.81721 25.7026L9.46459 25.8982C8.19517 26.5236 3.36034 29.0531 2.14881 31.729C0.781589 34.7562 2.3637 36.9351 3.41823 37.2278C6.68026 38.136 10.0208 36.5053 11.8278 33.8188C13.6241 31.1329 13.4099 27.646 12.5796 26.0546L12.5503 25.996L13.5463 25.4106C14.1522 25.0546 14.7644 24.7095 15.3826 24.3753C15.0699 25.2249 14.8456 26.2315 14.7279 27.6952C14.5908 29.4144 15.2934 31.6405 16.2222 32.5201C16.6327 32.9013 17.1203 32.9106 17.4237 32.9106C18.4982 32.9106 18.9872 32.0218 19.5235 30.9573C20.1874 29.6579 20.7742 28.1543 20.7742 28.1543C20.7742 28.1543 20.0424 32.2273 22.0437 32.2273C22.7755 32.2273 23.5087 31.2799 23.84 30.7916V30.8016C23.84 30.8016 23.86 30.7723 23.8986 30.7038C23.9764 30.5867 24.0157 30.5175 24.0157 30.5175V30.4975C24.3084 29.9899 24.9631 28.8343 25.9397 26.9028C27.1998 24.4212 28.4107 21.3162 28.4107 21.3162C28.4107 21.3162 28.5278 22.078 28.8897 23.3281C29.1046 24.0706 29.5737 24.881 29.9343 25.672L29.4652 26.3174L29.4752 26.3274C29.241 26.64 28.9762 26.9727 28.7035 27.304C27.7075 28.4949 26.5159 29.8535 26.3596 30.2447C26.1733 30.7104 26.2132 31.0458 26.5744 31.3192C26.8379 31.5148 27.3063 31.5534 27.8053 31.5148C28.7034 31.4563 29.3355 31.2314 29.6415 31.0956C30.2054 30.8947 30.738 30.6152 31.2237 30.2653C32.2003 29.5428 32.7965 28.5169 32.7379 27.1497C32.7086 26.3979 32.4651 25.6554 32.1618 24.9521L32.4252 24.5616C33.9687 22.3062 35.1596 19.8246 35.1596 19.8246C35.1596 19.8246 35.2767 20.5864 35.6387 21.8365C35.825 22.4712 36.1955 23.1651 36.5275 23.8484C35.0818 25.03 34.1737 26.3979 33.861 27.296C33.2848 28.9567 33.7346 29.7085 34.5835 29.8908C34.9647 29.9686 35.5116 29.793 35.9208 29.618C36.4284 29.4517 37.0438 29.1689 37.6107 28.7484C38.5873 28.0259 39.5248 27.0199 39.4762 25.6614C39.4469 25.036 39.2806 24.4212 39.0571 23.8351C40.2879 23.3275 41.88 23.0341 43.9019 23.2782C48.2484 23.7859 49.1079 26.5017 48.9416 27.6347C48.7753 28.7677 47.8671 29.3931 47.5644 29.5881C47.2617 29.7743 47.1639 29.8422 47.1932 29.9786C47.2331 30.1835 47.3688 30.1742 47.6323 30.1349C47.9935 30.0764 49.9176 29.2068 49.9961 27.1171C50.1132 24.4312 47.5637 21.5018 43.0416 21.5304L43.0456 21.5231ZM9.52513 32.8235C8.08939 34.3963 6.0675 34.9924 5.20725 34.4841C4.27914 33.9472 4.64174 31.6319 6.40881 29.962C7.48329 28.946 8.87978 28.0086 9.79791 27.4324L10.6868 26.8955C10.7453 26.8556 10.7846 26.837 10.7846 26.837C10.8531 26.7971 10.9309 26.7492 11.0094 26.6999C11.6641 29.0831 11.0387 31.1735 9.5258 32.8241L9.52513 32.8235ZM20.0251 25.6833C19.5261 26.9042 18.4723 30.0398 17.8376 29.8635C17.2907 29.7171 16.9593 27.3433 17.7311 25.0001C18.1216 23.8185 18.952 22.4053 19.441 21.8644C20.2327 20.9862 21.0909 20.6922 21.3065 21.0541C21.5606 21.5231 20.3398 24.9222 20.0271 25.6847L20.0251 25.6833ZM28.6881 29.8249C28.4733 29.9314 28.2777 30.0112 28.1892 29.9513C28.1206 29.9114 28.277 29.765 28.277 29.765C28.277 29.765 29.3614 28.6027 29.7912 28.0658L30.6408 26.9814V27.0984C30.6408 28.5049 29.2929 29.4423 28.6875 29.8236L28.6881 29.8249ZM35.3692 28.2947C35.2129 28.1776 35.2322 27.8157 35.7598 26.6833C35.9647 26.2342 36.4337 25.4817 37.2434 24.7692C37.3412 25.0619 37.3998 25.3454 37.3898 25.6095C37.3798 27.3679 36.1297 28.0219 35.3672 28.2953L35.3692 28.2947Z" fill="#CF649A"/>
</svg>
