<svg width="51" height="50" viewBox="0 0 51 50" fill="none" xmlns="http://www.w3.org/2000/svg">
<g clip-path="url(#clip0_59_1458)">
<path fill-rule="evenodd" clip-rule="evenodd" d="M25.708 11C18.8888 11 14.6279 14.382 12.9223 21.146C15.4797 17.764 18.4629 16.496 21.872 17.341C23.817 17.823 25.2079 19.223 26.7461 20.773C29.2534 23.297 32.1554 26.218 38.4926 26.218C45.3108 26.218 49.5727 22.836 51.2772 16.073C48.7209 19.455 45.7377 20.723 42.3286 19.877C40.3825 19.395 38.9916 17.995 37.4534 16.446C34.9462 13.92 32.0452 11 25.708 11ZM12.9223 26.218C6.10413 26.218 1.84225 29.6 0.137695 36.364C2.69502 32.982 5.67824 31.714 9.08634 32.559C11.0324 33.041 12.4233 34.441 13.9615 35.991C16.4687 38.515 19.3698 41.436 25.708 41.436C32.5262 41.436 36.7881 38.055 38.4926 31.291C35.9353 34.673 32.9521 35.941 29.543 35.096C27.5979 34.613 26.207 33.213 24.6688 31.664C22.1616 29.14 19.2595 26.218 12.9223 26.218Z" fill="#38BDF8"/>
</g>
<defs>
<clipPath id="clip0_59_1458">
<rect width="50.1044" height="50" fill="white" transform="translate(0.137695)"/>
</clipPath>
</defs>
</svg>
