<svg width="50" height="50" viewBox="0 0 50 50" fill="none" xmlns="http://www.w3.org/2000/svg">
<path d="M25 47.5C37.4264 47.5 47.5 37.4264 47.5 25C47.5 12.5736 37.4264 2.5 25 2.5C12.5736 2.5 2.5 12.5736 2.5 25C2.5 37.4264 12.5736 47.5 25 47.5Z" fill="#F47421"/>
<path d="M24.9999 35.9125C31.0267 35.9125 35.9124 31.0268 35.9124 25C35.9124 18.9732 31.0267 14.0875 24.9999 14.0875C18.9731 14.0875 14.0874 18.9732 14.0874 25C14.0874 31.0268 18.9731 35.9125 24.9999 35.9125Z" stroke="white" stroke-width="8.55"/>
<path d="M9.7 29.2188C12.03 29.2188 13.9188 27.33 13.9188 25C13.9188 22.67 12.03 20.7812 9.7 20.7812C7.37002 20.7812 5.4812 22.67 5.4812 25C5.4812 27.33 7.37002 29.2188 9.7 29.2188Z" fill="#F47421"/>
<path d="M33.5 25H38.5H33.5Z" fill="black"/>
<path d="M33.5 25H38.5" stroke="#F47421" stroke-width="3.2378"/>
<path d="M9.70001 28.0037C11.3589 28.0037 12.7037 26.6589 12.7037 25C12.7037 23.3411 11.3589 21.9963 9.70001 21.9963C8.0411 21.9963 6.69629 23.3411 6.69629 25C6.69629 26.6589 8.0411 28.0037 9.70001 28.0037Z" fill="white"/>
</svg>
