<svg width="152" height="75" viewBox="0 0 152 75" fill="none" xmlns="http://www.w3.org/2000/svg">
<path d="M150.918 30.9471C150.918 30.9471 151.768 27.3292 129.076 30.4175C106.384 33.5057 76.3374 47.828 71.7647 68.1776C70.616 73.2874 71.6678 73.4814 72.7494 73.4068C75.9868 73.1755 85.6842 55.9738 87.2507 43.6059C89.3394 27.098 91.9726 2.53372 95.4562 1.10149C98.9398 -0.330743 101.267 13.6857 100.029 24.8452C98.7906 35.9972 91.3535 69.3115 91.5101 72.3997C91.6668 75.488 98.4773 69.6845 100.104 62.7546C101.73 55.8172 110.092 20.7723 110.092 15.8788" stroke="white" stroke-width="2" stroke-miterlimit="2.6131" stroke-linecap="round" stroke-linejoin="round"/>
<path d="M116.149 24.1962C116.149 24.1962 112.703 33.7742 106.534 36.4895C110.808 35.8778 113.441 35.199 118.245 44.7696C120.185 41.6067 121.811 40.3237 124.362 40.4729C126.921 40.6221 128.853 39.2644 130.941 38.3618C133.03 37.4592 134.582 38.5856 137.215 39.1152C139.848 39.6449 148.523 37.0788 151 38.2126" stroke="white" stroke-width="2" stroke-miterlimit="2.6131" stroke-linecap="round" stroke-linejoin="round"/>
<path d="M118.894 44.598C118.894 44.598 119.774 42.211 119.506 40.3237" stroke="white" stroke-width="2" stroke-miterlimit="2.6131" stroke-linecap="round" stroke-linejoin="round"/>
<path d="M92.6515 56.7273C92.6515 56.7273 38.8384 54.5192 19.7718 61.5461C1.91371 68.1329 15.4229 73.0786 17.4818 73.3024C19.5406 73.5261 32.0204 75.0777 36.9288 59.5843C41.7178 44.4787 36.0112 30.2683 35.325 23.5622C34.6387 16.856 32.7962 1.67589 38.7191 1.06421C41.2031 0.803126 44.1421 4.33149 43.5454 8.75499C43.1575 11.612 39.5545 17.8631 28.5368 23.4876C17.8771 28.933 0.712729 33.3864 1.00365 33.3118C20.6073 32.4838 73.9131 29.955 80.8505 28.8286" stroke="white" stroke-width="2" stroke-miterlimit="2.6131" stroke-linecap="round" stroke-linejoin="round"/>
<path d="M34.8999 25.8374C35.3848 26.3148 40.4573 30.3056 41.8447 25.9866C42.3594 24.3828 42.2028 14.2751 41.5687 9.80682C41.979 15.2299 43.0681 27.4412 44.7912 28.2766C45.7237 28.7317 46.2906 27.7246 46.4995 26.7996" stroke="white" stroke-width="2" stroke-miterlimit="2.6131" stroke-linecap="round" stroke-linejoin="round"/>
<path d="M50.7438 25.1212C50.7438 25.1212 49.4533 23.6442 48.6999 23.7636C47.8196 23.8978 45.5072 26.1506 46.9469 27.7246C47.8644 28.7092 50.0501 27.0085 50.7438 25.1212ZM50.7438 25.1212C50.5424 26.5236 50.6468 27.3591 50.7811 27.8141C50.8631 28.105 51.169 28.2766 51.4599 28.1945C52.0044 28.0528 52.922 27.6948 53.7276 26.8369" stroke="white" stroke-width="2" stroke-miterlimit="2.6131" stroke-linecap="round" stroke-linejoin="round"/>
<path d="M53.9889 21.757C53.9889 21.757 53.1832 27.1502 54.6826 27.3666C56.3461 27.6053 57.2114 26.2775 57.383 25.1809C57.5694 24.0098 57.8604 22.033 57.7858 21.5258C57.7858 24.2261 56.8683 35.4154 55.6523 38.5559C54.5483 41.4054 53.0639 43.8447 51.8405 43.8298C49.7444 43.7999 49.3565 40.1597 50.5053 39.3839C51.9002 38.444 59.6581 39.272 64.2532 38.899" stroke="white" stroke-width="2" stroke-miterlimit="2.6131" stroke-linecap="round" stroke-linejoin="round"/>
<path d="M57.562 26.2103C57.562 26.2103 59.4269 25.8523 62.3436 25.5017C65.6034 25.1063 64.2159 26.6878 64.2159 26.6878C64.2159 26.6878 62.903 28.4184 61.6722 28.7615C61.3664 28.8436 61.5379 25.7852 61.5379 24.5618C61.5379 23.3384 61.8214 16.14 62.2839 14.0662" stroke="white" stroke-width="2" stroke-miterlimit="2.6131" stroke-linecap="round" stroke-linejoin="round"/>
<path d="M64.0516 20.5709C64.0516 20.5709 60.1652 21.011 59.4417 21.2721" stroke="white" stroke-width="2" stroke-miterlimit="2.6131" stroke-linecap="round" stroke-linejoin="round"/>
<path d="M64.8798 14.3795C64.9021 14.275 65.9912 20.7425 64.4993 26.1208C64.4993 26.1357 64.4546 26.2774 64.462 26.27C65.3572 24.0545 66.7894 23.7785 67.4981 24.338C68.4081 25.0466 67.968 26.9115 69.4375 26.9861C70.9071 27.0607 71.3919 26.1954 71.6008 25.9119" stroke="white" stroke-width="2" stroke-miterlimit="2.6131" stroke-linecap="round" stroke-linejoin="round"/>
<path d="M74.5174 24.6886C74.5174 24.6886 74.3682 23.6368 73.0479 23.8978C71.735 24.1589 70.7578 25.897 72.0931 26.2178C73.4283 26.5385 75.1664 25.1809 75.5617 24.599C76.0392 25.5389 76.6881 26.2401 77.1805 26.2774C77.6728 26.3147 78.829 25.0317 79.5228 25.4121C81.1564 26.3073 81.231 26.2178 81.4249 25.7254C81.8203 24.7259 83.0437 23.2414 84.5206 24.6214C84.9235 25.0765 84.9831 25.4867 85.8783 24.7333C86.7734 23.9799 87.6835 23.9202 89.2127 25.3748C90.7419 26.8294 105.497 24.6811 106.295 24.4499" stroke="white" stroke-width="2" stroke-miterlimit="2.6131" stroke-linecap="round" stroke-linejoin="round"/>
<path d="M80.8059 23.6517C80.9402 23.495 81.0521 25.5315 81.067 26.0835" stroke="white" stroke-width="2" stroke-miterlimit="2.6131" stroke-linecap="round" stroke-linejoin="round"/>
</svg>
