<svg width="50" height="40" viewBox="0 0 50 40" fill="none" xmlns="http://www.w3.org/2000/svg">
<path fill-rule="evenodd" clip-rule="evenodd" d="M10.3852 0.0847473C7.5322 0.0847473 5.42119 2.58178 5.51568 5.28983C5.60636 7.89153 5.48856 11.261 4.64025 14.0089C3.78941 16.7648 2.35042 18.5106 0 18.7347V21.2653C2.35042 21.4894 3.78941 23.2352 4.64025 25.9911C5.48856 28.739 5.60636 32.1085 5.51568 34.7102C5.42119 37.4178 7.5322 39.9153 10.3856 39.9153H39.6186C42.4716 39.9153 44.5822 37.4182 44.4877 34.7102C44.397 32.1085 44.5148 28.739 45.3631 25.9911C46.2144 23.2352 47.6496 21.4894 50 21.2653V18.7347C47.6496 18.5106 46.2144 16.7648 45.3631 14.0089C44.5148 11.2614 44.397 7.89153 44.4877 5.28983C44.5822 2.58221 42.4716 0.0847473 39.6186 0.0847473H10.3852ZM33.8983 24.603C33.8983 28.3318 31.117 30.5932 26.5013 30.5932H18.6441C18.4193 30.5932 18.2038 30.5039 18.0448 30.345C17.8859 30.1861 17.7966 29.9705 17.7966 29.7458V10.2542C17.7966 10.0295 17.8859 9.81392 18.0448 9.655C18.2038 9.49607 18.4193 9.40678 18.6441 9.40678H26.4564C30.3051 9.40678 32.8309 11.4915 32.8309 14.6924C32.8309 16.939 31.1318 18.9504 28.9669 19.3025V19.4199C31.914 19.7432 33.8983 21.7839 33.8983 24.603ZM25.6445 12.0932H21.1644V18.4212H24.9377C27.8547 18.4212 29.4631 17.2466 29.4631 15.147C29.4631 13.1797 28.0801 12.0932 25.6445 12.0932ZM21.1644 20.9322V27.9059H25.8093C28.8462 27.9059 30.4551 26.6873 30.4551 24.397C30.4551 22.1064 28.8013 20.9318 25.614 20.9318L21.1644 20.9322Z" fill="#712CF9"/>
</svg>
