<svg width="50" height="55" viewBox="0 0 50 55" fill="none" xmlns="http://www.w3.org/2000/svg">
<g clip-path="url(#clip0_113_1325)">
<path fill-rule="evenodd" clip-rule="evenodd" d="M23.5565 0.373157C24.4499 -0.122936 25.5499 -0.122936 26.442 0.373157C30.8565 2.82498 44.1407 10.2052 48.5565 12.657C49.4499 13.1518 49.9999 14.0685 49.9999 15.0606C49.9999 19.9643 49.9999 34.7234 49.9999 39.627C49.9999 40.6192 49.4499 41.5359 48.5565 42.032C44.142 44.4838 30.8578 51.864 26.442 54.3158C25.5486 54.8119 24.4486 54.8119 23.5565 54.3158C19.1421 51.864 5.85788 44.4838 1.4421 42.032C0.549999 41.5359 0 40.6205 0 39.6283C0 34.7247 0 19.9656 0 15.0619C0 14.0698 0.549999 13.1531 1.44342 12.657C5.85657 10.2052 19.1434 2.82498 23.5565 0.373157Z" fill="#004482"/>
<path fill-rule="evenodd" clip-rule="evenodd" d="M0.399999 40.891C0.0499999 40.4274 0 39.9873 0 39.3949C0 34.5199 0 19.8454 0 14.9691C0 13.9821 0.548683 13.0707 1.43947 12.5785C5.83814 10.141 19.0776 2.80375 23.4763 0.36495C24.367 -0.128539 25.5736 -0.118123 26.4644 0.375366C30.8631 2.81286 44.0578 10.0876 48.4565 12.5251C48.8117 12.723 49.0828 12.9613 49.3249 13.2751L0.399999 40.891Z" fill="#659AD2"/>
<path fill-rule="evenodd" clip-rule="evenodd" d="M24.9999 9.11494C35.167 9.11494 43.4209 17.2829 43.4209 27.3441C43.4209 37.4053 35.167 45.5733 24.9999 45.5733C14.8328 45.5733 6.57886 37.4053 6.57886 27.3441C6.57886 17.2829 14.8328 9.11494 24.9999 9.11494ZM24.9999 18.2295C30.0828 18.2295 34.2104 22.3129 34.2104 27.3441C34.2104 32.374 30.0828 36.4587 24.9999 36.4587C19.917 36.4587 15.7894 32.374 15.7894 27.3441C15.7894 22.3129 19.9157 18.2295 24.9999 18.2295Z" fill="white"/>
<path fill-rule="evenodd" clip-rule="evenodd" d="M49.3222 13.2881C50.0011 13.917 49.988 14.8649 49.988 15.611C49.988 20.5524 49.9459 34.6071 49.9998 39.5485C50.0051 40.0641 49.8327 40.6071 49.5748 41.016L24.4644 27.3441L49.3222 13.2881Z" fill="#00599C"/>
</g>
<defs>
<clipPath id="clip0_113_1325">
<rect width="50" height="54.6875" fill="white"/>
</clipPath>
</defs>
</svg>
