<svg width="50" height="36" viewBox="0 0 50 36" fill="none" xmlns="http://www.w3.org/2000/svg">
<path d="M49.5069 13.5056C49.3713 13.3982 48.1054 12.445 45.4357 12.445C44.7307 12.4481 44.0273 12.5084 43.3322 12.6253C42.8155 9.09385 39.8874 7.37207 39.7561 7.29483L39.0393 6.88259L38.5678 7.56102C37.9773 8.47236 37.5463 9.47699 37.2932 10.5322C36.8152 12.5481 37.1059 14.4415 38.1329 16.0603C36.8928 16.7494 34.9035 16.919 34.5009 16.934H1.56513C0.704859 16.9352 0.00678875 17.6284 0.00210042 18.4861C-0.0363158 21.3633 0.452529 24.2232 1.44456 26.9252C2.57914 29.8922 4.26708 32.0776 6.4631 33.4151C8.92391 34.9178 12.9219 35.7765 17.4539 35.7765C19.5012 35.783 21.5447 35.5982 23.5575 35.2248C26.3555 34.7125 29.0479 33.7373 31.5234 32.3395C33.5631 31.1616 35.3988 29.6633 36.9596 27.902C39.569 24.9566 41.1235 21.6762 42.2795 18.7609H42.7402C45.5972 18.7609 47.354 17.6209 48.3228 16.6656C48.9667 16.0563 49.4693 15.3141 49.7955 14.4909L50 13.8941L49.5069 13.5056Z" fill="#2496ED"/>
<path d="M4.61826 15.9723H9.03179C9.24466 15.9723 9.41715 15.8002 9.41715 15.588V11.6679C9.41834 11.4556 9.24676 11.2827 9.03396 11.2815C9.03326 11.2815 9.03249 11.2815 9.03179 11.2815H4.61826C4.4054 11.2815 4.23291 11.4535 4.23291 11.6657V11.6679V15.588C4.23291 15.8002 4.4054 15.9723 4.61826 15.9723Z" fill="#2496ED"/>
<path d="M10.7001 15.9723H15.1136C15.3265 15.9723 15.499 15.8002 15.499 15.588V11.6679C15.5002 11.4556 15.3286 11.2827 15.1157 11.2815C15.115 11.2815 15.1143 11.2815 15.1136 11.2815H10.7C10.486 11.2815 10.3125 11.4544 10.3125 11.6679V15.588C10.3138 15.8006 10.4869 15.9723 10.7001 15.9723Z" fill="#2496ED"/>
<path d="M16.8747 15.9723H21.2882C21.5011 15.9723 21.6736 15.8002 21.6736 15.588V11.6679C21.6748 11.4556 21.5032 11.2827 21.2903 11.2815C21.2896 11.2815 21.2888 11.2815 21.2881 11.2815H16.8746C16.6617 11.2815 16.4893 11.4535 16.4893 11.6657V11.6679V15.588C16.4893 15.8002 16.6619 15.9723 16.8747 15.9723Z" fill="#2496ED"/>
<path d="M22.9762 15.9723H27.3897C27.6029 15.9723 27.776 15.8006 27.7772 15.588V11.6679C27.7772 11.4544 27.6038 11.2815 27.3897 11.2815H22.9762C22.7633 11.2815 22.5908 11.4535 22.5908 11.6657V11.6679V15.588C22.5908 15.8002 22.7634 15.9723 22.9762 15.9723Z" fill="#2496ED"/>
<path d="M10.7 10.3326H15.1136C15.3267 10.3314 15.4989 10.1587 15.4989 9.94615V6.02608C15.4989 5.81383 15.3263 5.64183 15.1136 5.64183H10.7C10.4869 5.64183 10.3137 5.81348 10.3125 6.02608V9.94615C10.3137 10.1591 10.4865 10.3314 10.7 10.3326Z" fill="#2496ED"/>
<path d="M16.8746 10.3326H21.2881C21.5013 10.3314 21.6735 10.1587 21.6735 9.94615V6.02608C21.6735 5.81383 21.5009 5.64183 21.2881 5.64183H16.8746C16.6617 5.64183 16.4893 5.8139 16.4893 6.02608V9.94615C16.4893 10.1587 16.6615 10.3314 16.8746 10.3326Z" fill="#2496ED"/>
<path d="M22.9762 10.3326H27.3897C27.6033 10.3314 27.776 10.1591 27.7772 9.94615V6.02608C27.776 5.81348 27.6029 5.64183 27.3897 5.64183H22.9762C22.7633 5.64183 22.5908 5.8139 22.5908 6.02608V9.94615C22.5908 10.1587 22.763 10.3314 22.9762 10.3326Z" fill="#2496ED"/>
<path d="M22.9762 4.69081H27.3897C27.6029 4.69081 27.776 4.51909 27.7772 4.30655V0.384254C27.776 0.171648 27.6029 0 27.3897 0H22.9762C22.7633 0 22.5908 0.171997 22.5908 0.384254V4.30648C22.5908 4.51874 22.7634 4.69081 22.9762 4.69081Z" fill="#2496ED"/>
<path d="M29.1314 15.9723H33.545C33.7582 15.9723 33.9313 15.8006 33.9325 15.588V11.6679C33.9325 11.4544 33.759 11.2815 33.545 11.2815H29.1314C28.9187 11.2815 28.7461 11.4535 28.7461 11.6657V11.6679V15.588C28.7461 15.8002 28.9187 15.9723 29.1314 15.9723Z" fill="#2496ED"/>
</svg>
