<svg width="50" height="62" viewBox="0 0 50 62" fill="none" xmlns="http://www.w3.org/2000/svg">
<path d="M30.861 0.0210911L50 0L17.8899 32.0936L9.52147 40.4153L0 30.8821L30.861 0.0210911ZM30.6829 28.6769C30.9313 28.3488 31.3883 28.5105 31.7351 28.4683L49.9836 28.473L33.3521 45.0881L23.7814 35.576L30.6829 28.6769Z" fill="#44D1FD"/>
<path d="M14.2412 45.1045L23.7814 35.576L33.3521 45.0881L33.3919 45.1303L23.7838 54.6494L14.2412 45.1045Z" fill="#1FBCFD"/>
<path d="M23.7837 54.6494L33.3919 45.1303L49.9906 61.7454C43.7382 61.7595 37.4882 61.7407 31.2382 61.7548C30.882 61.8345 30.6617 61.5087 30.4344 61.3072L23.7837 54.6494Z" fill="#08589C"/>
</svg>
