<svg width="50" height="50" viewBox="0 0 50 50" fill="none" xmlns="http://www.w3.org/2000/svg">
<path fill-rule="evenodd" clip-rule="evenodd" d="M24.9999 3.45154L43.6614 14.2257V35.7742L24.9999 46.5484L6.33838 35.7742V14.2257L24.9999 3.45154ZM8.43223 15.4346V31.2625L22.1396 7.5207L8.43223 15.4346ZM24.9999 6.7543L9.19863 34.1228H40.8011L24.9999 6.7543ZM38.7073 36.2167H11.2925L24.9999 44.1306L38.7073 36.2167ZM41.5675 31.2625L27.8601 7.5207L41.5675 15.4346V31.2625Z" fill="#E10098"/>
<path d="M25.0001 9.07046C27.4357 9.07046 29.4101 7.09603 29.4101 4.66046C29.4101 2.22488 27.4357 0.250458 25.0001 0.250458C22.5645 0.250458 20.5901 2.22488 20.5901 4.66046C20.5901 7.09603 22.5645 9.07046 25.0001 9.07046Z" fill="#E10098"/>
<path d="M42.6146 19.2403C45.0502 19.2403 47.0246 17.2658 47.0246 14.8303C47.0246 12.3947 45.0502 10.4203 42.6146 10.4203C40.179 10.4203 38.2046 12.3947 38.2046 14.8303C38.2046 17.2658 40.179 19.2403 42.6146 19.2403Z" fill="#E10098"/>
<path d="M42.6146 39.5798C45.0502 39.5798 47.0246 37.6054 47.0246 35.1698C47.0246 32.7342 45.0502 30.7598 42.6146 30.7598C40.179 30.7598 38.2046 32.7342 38.2046 35.1698C38.2046 37.6054 40.179 39.5798 42.6146 39.5798Z" fill="#E10098"/>
<path d="M25.0001 49.7496C27.4357 49.7496 29.4101 47.7751 29.4101 45.3396C29.4101 42.904 27.4357 40.9296 25.0001 40.9296C22.5645 40.9296 20.5901 42.904 20.5901 45.3396C20.5901 47.7751 22.5645 49.7496 25.0001 49.7496Z" fill="#E10098"/>
<path d="M7.3829 39.5798C9.81848 39.5798 11.7929 37.6054 11.7929 35.1698C11.7929 32.7342 9.81848 30.7598 7.3829 30.7598C4.94732 30.7598 2.9729 32.7342 2.9729 35.1698C2.9729 37.6054 4.94732 39.5798 7.3829 39.5798Z" fill="#E10098"/>
<path d="M7.3829 19.2403C9.81848 19.2403 11.7929 17.2658 11.7929 14.8303C11.7929 12.3947 9.81848 10.4203 7.3829 10.4203C4.94732 10.4203 2.9729 12.3947 2.9729 14.8303C2.9729 17.2658 4.94732 19.2403 7.3829 19.2403Z" fill="#E10098"/>
</svg>
