<svg
    width="51"
    height="52"
    viewBox="0 0 51 52"
    xmlns="http://www.w3.org/2000/svg"
  >
    <g clip-path="url(#clip0_704_473)">
      <path
        fill-rule="evenodd"
        clip-rule="evenodd"
        d="M50.1346 11.564C50.1531 11.6321 50.1625 11.7024 50.1627 11.773V22.745C50.1627 22.8858 50.1255 23.0242 50.0547 23.146C49.984 23.2679 49.8823 23.3689 49.7599 23.439L40.5316 28.741V39.25C40.5316 39.536 40.3793 39.8 40.1308 39.944L20.8677 51.01C20.8236 51.035 20.7755 51.051 20.7274 51.068C20.7093 51.074 20.6923 51.085 20.6733 51.09C20.5386 51.1254 20.3971 51.1254 20.2624 51.09C20.2404 51.084 20.2203 51.072 20.1993 51.064C20.1552 51.048 20.1091 51.034 20.067 51.01L0.807869 39.944C0.685521 39.8739 0.583863 39.7728 0.513139 39.6509C0.442416 39.5291 0.405126 39.3908 0.405029 39.25V6.334C0.405029 6.262 0.41505 6.192 0.433088 6.124C0.4391 6.101 0.45313 6.08 0.461146 6.057C0.476178 6.015 0.490207 5.972 0.512253 5.933C0.527284 5.907 0.54933 5.886 0.567368 5.862C0.590416 5.83 0.611459 5.797 0.638516 5.769C0.661564 5.746 0.691626 5.729 0.717681 5.709C0.746741 5.685 0.772795 5.659 0.805864 5.64H0.806866L10.4369 0.107C10.5589 0.0369805 10.6971 0.000128746 10.8378 0.000128746C10.9784 0.000128746 11.1167 0.0369805 11.2386 0.107L20.8687 5.64H20.8707C20.9027 5.66 20.9298 5.685 20.9589 5.708C20.9849 5.728 21.014 5.746 21.037 5.768C21.0651 5.797 21.0851 5.83 21.1092 5.862C21.1262 5.886 21.1492 5.907 21.1633 5.933C21.1863 5.973 21.1994 6.015 21.2154 6.057C21.2234 6.08 21.2374 6.101 21.2434 6.125C21.2619 6.19315 21.2713 6.26341 21.2715 6.334V26.893L29.2962 22.282V11.772C29.2962 11.702 29.3062 11.631 29.3243 11.564C29.3313 11.54 29.3443 11.519 29.3523 11.496C29.3684 11.454 29.3824 11.411 29.4044 11.372C29.4195 11.346 29.4415 11.325 29.4586 11.301C29.4826 11.269 29.5027 11.236 29.5307 11.208C29.5538 11.185 29.5828 11.168 29.6089 11.148C29.6389 11.124 29.665 11.098 29.6971 11.079L39.3291 5.546C39.451 5.47588 39.5893 5.43897 39.73 5.43897C39.8707 5.43897 40.0089 5.47588 40.1308 5.546L49.7609 11.079C49.7949 11.099 49.821 11.124 49.851 11.147C49.8761 11.167 49.9052 11.185 49.9282 11.207C49.9563 11.236 49.9763 11.269 50.0004 11.301C50.0184 11.325 50.0404 11.346 50.0545 11.372C50.0775 11.411 50.0905 11.454 50.1066 11.496C50.1156 11.519 50.1286 11.54 50.1346 11.564ZM48.5573 22.282V13.158L45.1873 15.094L40.5316 17.769V26.893L48.5584 22.282H48.5573ZM38.9273 38.787V29.657L34.3477 32.267L21.2705 39.715V48.931L38.9273 38.787ZM2.01037 7.719V38.787L19.6652 48.93V39.716L10.4419 34.507L10.4389 34.505L10.4349 34.503C10.4039 34.485 10.3778 34.459 10.3487 34.437C10.3237 34.417 10.2946 34.401 10.2726 34.379L10.2706 34.376C10.2445 34.351 10.2265 34.32 10.2044 34.292C10.1844 34.265 10.1604 34.242 10.1443 34.214L10.1433 34.211C10.1253 34.181 10.1143 34.145 10.1012 34.111C10.0882 34.081 10.0712 34.053 10.0632 34.021C10.0531 33.983 10.0511 33.942 10.0471 33.903C10.0431 33.873 10.0351 33.843 10.0351 33.813V33.811V12.33L5.38039 9.654L2.01037 7.719ZM10.8388 1.725L2.81505 6.334L10.8368 10.943L18.8595 6.333L10.8368 1.725H10.8388ZM15.0115 30.489L19.6662 27.815V7.719L16.2961 9.655L11.6404 12.33V32.426L15.0115 30.489ZM39.73 7.164L31.7072 11.773L39.73 16.382L47.7517 11.772L39.73 7.164ZM38.9273 17.769L34.2716 15.094L30.9016 13.158V22.282L35.5563 24.956L38.9273 26.893V17.769ZM20.4668 38.33L32.2343 31.626L38.1166 28.276L30.0999 23.67L20.8697 28.973L12.4571 33.806L20.4668 38.33Z"
        fill="#FF2D20"
      />
    </g>
    <defs>
      <clipPath id="clip0_704_473">
        <rect
          width="51"
          height="52"
          fill="white"
        />
      </clipPath>
    </defs>
</svg>