<svg width="52" height="36" viewBox="0 0 52 36" fill="none" xmlns="http://www.w3.org/2000/svg">
<g clip-path="url(#clip0_113_1368)">
<path d="M12.5018 32.7967H10.4954C10.4249 29.3444 10.2293 26.0981 9.90959 23.0572H9.89192L6.83703 32.7967H5.30935L2.27297 23.0572H2.25508C2.02978 25.9776 1.88804 29.2239 1.82893 32.7967H-0.000488281C0.117732 28.4516 0.413593 24.3784 0.887095 20.5763H3.37394L6.26864 29.5554H6.28641L9.19888 20.5763H11.5784C12.0994 25.0292 12.4071 29.1037 12.5016 32.7967" fill="#00758F"/>
<path d="M21.2055 23.7806C20.3884 28.2998 19.3107 31.584 17.973 33.6327C16.9307 35.2113 15.7889 36.0006 14.5455 36.0006C14.2141 36.0006 13.8053 35.8988 13.3203 35.6966V34.6072C13.5572 34.6426 13.8353 34.6614 14.155 34.6614C14.7351 34.6614 15.2026 34.498 15.5582 34.1718C15.9841 33.7744 16.1973 33.3277 16.1973 32.8326C16.1973 32.4945 16.031 31.8007 15.7 30.7511L13.498 23.7806H15.4691L17.0495 28.9939C17.4046 30.1775 17.5526 31.0038 17.4934 31.4748C18.3578 29.1213 18.9616 26.5565 19.3052 23.7806H21.2054" fill="#00758F"/>
<path d="M29.9944 29.4094C29.9944 30.4457 29.6208 31.2966 28.8762 31.9623C28.131 32.625 27.1298 32.9573 25.8761 32.9573C24.7035 32.9573 23.5671 32.5749 22.4663 31.8163L22.9813 30.7665C23.9286 31.2492 24.7858 31.4903 25.5555 31.4903C26.2775 31.4903 26.8426 31.3265 27.2515 31.0029C27.6594 30.6769 27.9038 30.2223 27.9038 29.6457C27.9038 28.9201 27.4074 28.2999 26.4966 27.7796C25.6558 27.3092 23.9753 26.3271 23.9753 26.3271C23.0648 25.6501 22.6084 24.9236 22.6084 23.7267C22.6084 22.7367 22.9488 21.9366 23.6287 21.3278C24.3102 20.7178 25.1894 20.4128 26.2661 20.4128C27.379 20.4128 28.391 20.7155 29.3024 21.3189L28.8394 22.3677C28.0595 22.0306 27.2905 21.8614 26.5322 21.8614C25.917 21.8614 25.4429 22.012 25.1123 22.3149C24.78 22.6152 24.5745 23.0017 24.5745 23.4727C24.5745 24.1964 25.0817 24.8242 26.0182 25.3546C26.8696 25.8252 28.5912 26.8263 28.5912 26.8263C29.5277 27.5021 29.9944 28.2226 29.9944 29.4094Z" fill="#F29111"/>
<path fill-rule="evenodd" clip-rule="evenodd" d="M33.5812 30.352C33.0957 29.5554 32.8524 28.2771 32.8524 26.5145C32.8524 23.4374 33.7703 21.8978 35.6052 21.8978C36.5646 21.8978 37.2687 22.266 37.719 23.0017C38.2039 23.7987 38.4472 25.0659 38.4472 26.8039C38.4472 29.9057 37.5293 31.4572 35.6944 31.4572C34.7353 31.4572 34.0309 31.0893 33.5812 30.3521M40.7203 33.0914L38.5168 31.9838C38.713 31.8197 38.8993 31.6428 39.068 31.4379C40.0035 30.3168 40.4718 28.6573 40.4718 26.4603C40.4718 22.4175 38.9148 20.3949 35.8011 20.3949C34.2739 20.3949 33.0836 20.9076 32.2313 21.9344C31.2954 23.0569 30.8281 24.7101 30.8281 26.8946C30.8281 29.0427 31.2422 30.6186 32.071 31.6196C32.8261 32.5244 33.9681 32.9774 35.4969 32.9774C36.0673 32.9774 36.5906 32.9058 37.0663 32.7626L39.9358 34.4648L40.7181 33.0913" fill="#F29111"/>
<path d="M47.9132 32.7967H42.2129V20.5763H44.131V31.2934H47.9132V32.7966" fill="#F29111"/>
<path d="M49.2812 32.7954H49.599V31.5521H50.0149V31.2981H48.8491V31.5521H49.2812V32.7954ZM51.6997 32.7954H51.9993V31.2981H51.5487L51.182 32.3187L50.7827 31.2981H50.3485V32.7954H50.632V31.6559H50.6481L51.0662 32.7954H51.2822L51.6997 31.6559V32.7954Z" fill="#F29111"/>
<path fill-rule="evenodd" clip-rule="evenodd" d="M50.321 16.4829C49.1617 16.4534 48.2639 16.5713 47.5109 16.8964C47.2937 16.9849 46.9464 16.9849 46.9167 17.2655C47.0334 17.3834 47.0473 17.5752 47.1494 17.7383C47.3228 18.0336 47.6263 18.4316 47.9021 18.6389C48.2063 18.8753 48.5105 19.1106 48.8296 19.3173C49.3941 19.6732 50.0316 19.879 50.5812 20.2335C50.9009 20.44 51.2185 20.7055 51.5382 20.9276C51.6969 21.0457 51.7975 21.2379 52.0011 21.311V21.2663C51.899 21.1338 51.8705 20.9418 51.7696 20.7933C51.6251 20.6468 51.48 20.513 51.3348 20.366C50.9146 19.7903 50.3925 19.2887 49.8289 18.8753C49.365 18.5496 48.3505 18.1065 48.163 17.5619C48.163 17.5619 48.1478 17.5462 48.1336 17.5317C48.4524 17.5017 48.8296 17.3834 49.1335 17.2938C49.6253 17.1613 50.0743 17.1913 50.5812 17.0588C50.8134 16.9993 51.0452 16.925 51.2779 16.8524V16.7185C51.0158 16.4534 50.8282 16.0984 50.5531 15.8477C49.815 15.1982 49.0029 14.5638 48.163 14.0314C47.7133 13.736 47.134 13.545 46.6558 13.2934C46.4828 13.2046 46.1935 13.1609 46.0916 13.0124C45.8308 12.6877 45.6853 12.2601 45.4975 11.8756C45.0778 11.0644 44.6715 10.164 44.31 9.3062C44.0494 8.73077 43.89 8.15534 43.5713 7.62344C42.0786 5.11286 40.457 3.59287 37.9657 2.10129C37.4297 1.79086 36.7924 1.65804 36.1122 1.49557C35.7495 1.48011 35.3877 1.4514 35.0256 1.43689C34.7935 1.3331 34.5614 1.05232 34.359 0.919506C33.533 0.388239 31.4047 -0.76326 30.796 0.757349C30.4048 1.71767 31.3753 2.66221 31.7086 3.14963C31.9547 3.48877 32.2738 3.87334 32.4468 4.25665C32.5483 4.50777 32.5774 4.77403 32.6792 5.03935C32.9107 5.68892 33.1276 6.41263 33.4324 7.01835C33.5912 7.32846 33.7648 7.65373 33.9675 7.93293C34.0845 8.09634 34.2866 8.16922 34.3302 8.4358C34.1282 8.73077 34.1124 9.1737 33.9966 9.54313C33.4755 11.2117 33.6779 13.2787 34.4169 14.504C34.6481 14.8731 35.1993 15.6855 35.938 15.3747C36.5897 15.1094 36.4449 14.2677 36.6331 13.5299C36.6764 13.3514 36.6473 13.2344 36.734 13.1164V13.1462C36.9367 13.5591 37.14 13.9567 37.3282 14.3716C37.7778 15.0943 38.5593 15.8475 39.2116 16.3491C39.5583 16.6159 39.8337 17.0729 40.2682 17.2358V17.1912H40.2397C40.1525 17.0587 40.0225 16.9992 39.9064 16.8963C39.6458 16.6303 39.3568 16.3053 39.1531 16.0102C38.545 15.1837 38.0084 14.2677 37.5315 13.3228C37.2991 12.864 37.0967 12.3625 36.9082 11.905C36.8215 11.7287 36.8215 11.4621 36.6764 11.3738C36.4585 11.6982 36.1407 11.9792 35.9816 12.3766C35.7062 13.0123 35.6774 13.7947 35.5753 14.6072C35.5177 14.6226 35.5468 14.6072 35.5177 14.6365C35.0547 14.5185 34.8953 14.0313 34.7211 13.6192C34.2866 12.5695 34.2136 10.8863 34.5908 9.67541C34.6917 9.36592 35.1275 8.39141 34.9529 8.09613C34.8653 7.81441 34.576 7.65351 34.4169 7.43109C34.229 7.15063 34.0251 6.79698 33.896 6.48623C33.5482 5.65968 33.3733 4.74384 32.9979 3.91729C32.824 3.53272 32.5192 3.13395 32.2738 2.7803C31.998 2.38154 31.6941 2.10108 31.4765 1.62912C31.4047 1.46633 31.3032 1.20038 31.4187 1.02371C31.4471 0.905407 31.5059 0.860922 31.622 0.831266C31.8092 0.668798 32.3459 0.87512 32.5337 0.96377C33.07 1.18461 33.5191 1.3925 33.9675 1.70199C34.1705 1.84995 34.3878 2.13041 34.6481 2.20486H34.9529C35.4162 2.3074 35.938 2.23357 36.3728 2.36702C37.14 2.61783 37.8351 2.98693 38.4584 3.3857C40.3552 4.61134 41.9196 6.35405 42.9764 8.43558C43.1507 8.77472 43.2237 9.08515 43.3828 9.4388C43.687 10.1638 44.0639 10.902 44.3675 11.61C44.6715 12.3041 44.9617 13.0122 45.3969 13.5889C45.6135 13.8985 46.4828 14.0609 46.874 14.2235C47.1631 14.3559 47.6127 14.4742 47.8736 14.6364C48.366 14.946 48.8575 15.3009 49.3217 15.641C49.5528 15.8182 50.2773 16.1869 50.321 16.4827" fill="#00758F"/>
<path fill-rule="evenodd" clip-rule="evenodd" d="M35.5465 3.65017C35.3008 3.65017 35.1275 3.68046 34.9526 3.72431V3.75396H34.9808C35.0978 3.98962 35.3008 4.15336 35.4444 4.35968C35.5611 4.59598 35.6626 4.83132 35.7783 5.06793C35.7926 5.05342 35.8065 5.03796 35.8065 5.03796C36.0107 4.89095 36.1119 4.65497 36.1119 4.30005C36.0244 4.19594 36.0107 4.09341 35.9377 3.98962C35.851 3.84229 35.6626 3.76847 35.5465 3.65016" fill="#00758F"/>
</g>
<defs>
<clipPath id="clip0_113_1368">
<rect width="52" height="36" fill="white"/>
</clipPath>
</defs>
</svg>
