<svg width="50" height="57" viewBox="0 0 50 57" fill="none" xmlns="http://www.w3.org/2000/svg">
<path d="M0.387925 42.6296C0.644819 43.0768 1.01743 43.4465 1.4666 43.7L23.5332 56.4401L23.5339 56.4394C23.9785 56.7006 24.4848 56.8383 25.0004 56.8383C25.516 56.8383 26.0222 56.7006 26.4668 56.4394L48.5341 43.6993C48.9824 43.445 49.3547 43.0755 49.6123 42.6292C49.87 42.1828 50.0038 41.6757 49.9999 41.1603V15.68L49.9992 15.6793C50.0031 15.1638 49.8692 14.6565 49.6114 14.21C49.3536 13.7636 48.9812 13.394 48.5328 13.1397L26.4655 0.399527V0.398823C26.0212 0.13769 25.5153 0 25 0C24.4847 0 23.9788 0.13769 23.5346 0.398823V0.399527L1.46797 13.1397C1.01931 13.3939 0.64672 13.7633 0.38877 14.2098C0.13082 14.6563 -0.00311755 15.1637 0.000818092 15.6793L0.000133296 15.68V41.1603C-0.00482935 41.6759 0.128863 42.1833 0.387221 42.6296" fill="#009639"/>
<path d="M17.9348 38.1196C17.9348 38.8722 17.6358 39.5941 17.1036 40.1263C16.5714 40.6585 15.8496 40.9575 15.0969 40.9575C14.3443 40.9575 13.6224 40.6585 13.0902 40.1263C12.558 39.5941 12.259 38.8722 12.259 38.1196L12.2597 38.1203L12.2625 18.6394C12.2877 18.2449 12.3918 17.8594 12.5685 17.5058C12.7453 17.1521 12.9911 16.8375 13.2915 16.5805C13.5918 16.3234 13.9407 16.1292 14.3174 16.0093C14.6941 15.8893 15.091 15.8461 15.4847 15.8821C16.2163 15.8728 16.9412 16.0226 17.6092 16.3213C18.2772 16.6199 18.8722 17.0602 19.3531 17.6117L20.2106 18.638L32.0664 32.8261V18.7187H32.065C32.065 18.346 32.1384 17.977 32.281 17.6327C32.4236 17.2883 32.6327 16.9755 32.8962 16.712C33.1597 16.4485 33.4725 16.2394 33.8168 16.0968C34.1612 15.9542 34.5302 15.8808 34.9029 15.8808C35.2755 15.8808 35.6446 15.9542 35.9889 16.0968C36.3332 16.2394 36.646 16.4485 36.9095 16.712C37.1731 16.9755 37.3821 17.2883 37.5247 17.6327C37.6673 17.977 37.7407 18.346 37.7407 18.7187H37.7401L37.7373 38.1981C37.712 38.5926 37.6079 38.978 37.4312 39.3317C37.2544 39.6853 37.0086 39.9999 36.7082 40.2569C36.4078 40.5139 36.059 40.7082 35.6823 40.8281C35.3057 40.9481 34.9087 40.9914 34.5151 40.9554C33.7834 40.965 33.0584 40.8152 32.3904 40.5166C31.7224 40.2179 31.1274 39.7774 30.6467 39.2258L17.9334 24.0114V38.1203L17.9348 38.1196Z" fill="white"/>
</svg>
