<svg width="50" height="31" viewBox="0 0 50 31" fill="none" xmlns="http://www.w3.org/2000/svg">
<g clip-path="url(#clip0_113_1467)">
<path d="M24.7132 30.7144C24.5482 30.7144 24.3843 30.671 24.2396 30.5874L22.7322 29.6923C22.507 29.566 22.6169 29.5213 22.6911 29.4956C22.9913 29.3902 23.0523 29.3664 23.3727 29.1838C23.4064 29.1646 23.4504 29.1714 23.4849 29.1918L24.643 29.8811C24.6848 29.9037 24.7442 29.9037 24.7829 29.8811L29.2984 27.2668C29.3402 27.243 29.3673 27.1943 29.3673 27.1444V21.9182C29.3673 21.866 29.3402 21.8196 29.2975 21.7935L24.7838 19.1815C24.742 19.1566 24.6866 19.1566 24.6448 19.1815L20.1321 21.7935C20.0883 21.8184 20.0605 21.8672 20.0605 21.9171V27.1433C20.0605 27.1931 20.0877 27.2407 20.1306 27.2646L21.3671 27.981C22.0385 28.3177 22.4488 27.9209 22.4488 27.5219V22.3637C22.4488 22.29 22.5064 22.2333 22.5799 22.2333H23.1518C23.223 22.2333 23.2818 22.29 23.2818 22.3637V27.5242C23.2818 28.422 22.7935 28.9378 21.9447 28.9378C21.6836 28.9378 21.4779 28.9378 20.9037 28.6544L19.7192 27.9697C19.5752 27.8854 19.4557 27.7648 19.3726 27.6198C19.2895 27.4748 19.2457 27.3105 19.2456 27.1433V21.9171C19.2456 21.577 19.4264 21.2595 19.7192 21.0917L24.2392 18.4764C24.5251 18.3143 24.9049 18.3143 25.1886 18.4764L29.7029 21.0929C29.8469 21.1769 29.9664 21.2973 30.0495 21.4421C30.1326 21.587 30.1764 21.7511 30.1765 21.9182V27.1444C30.1765 27.4834 29.9945 27.7996 29.7029 27.9697L25.1886 30.5851C25.0439 30.6686 24.8797 30.7124 24.7127 30.712" fill="#689F63"/>
<path d="M26.1077 27.1132C24.132 27.1132 23.7178 26.2035 23.7178 25.4406C23.7178 25.368 23.7761 25.3102 23.8485 25.3102H24.4318C24.4962 25.3102 24.5504 25.3573 24.5606 25.4211C24.6488 26.0172 24.911 26.3178 26.1057 26.3178C27.0574 26.3178 27.462 26.1022 27.462 25.596C27.462 25.3047 27.3467 25.0881 25.8683 24.943C24.6318 24.8206 23.8678 24.5474 23.8678 23.5554C23.8678 22.6417 24.6363 22.0975 25.9237 22.0975C27.3693 22.0975 28.0859 22.6009 28.1764 23.6824C28.1779 23.7006 28.1756 23.7189 28.1697 23.7361C28.1638 23.7534 28.1544 23.7692 28.142 23.7826C28.1297 23.7961 28.1148 23.8068 28.0981 23.8141C28.0814 23.8214 28.0634 23.8252 28.0452 23.8252H27.4586C27.3976 23.8252 27.3445 23.7821 27.332 23.7232C27.1908 23.0963 26.8494 22.8956 25.9215 22.8956C24.8827 22.8956 24.7618 23.2584 24.7618 23.5305C24.7618 23.8604 24.9042 23.9567 26.3058 24.1427C27.6937 24.3274 28.3527 24.5882 28.3527 25.5665C28.3527 26.5528 27.5321 27.1185 26.1012 27.1185M31.6011 21.576H31.7525C31.8769 21.576 31.9006 21.4887 31.9006 21.4377C31.9006 21.304 31.8091 21.304 31.7582 21.304H31.6022L31.6011 21.576ZM25.9235 26.6847H26.2592C26.3745 26.6847 26.6005 26.6847 26.6005 26.9431C26.6005 27.1234 26.4852 27.1608 26.4163 27.1835C26.5508 27.1926 26.5598 27.281 26.5779 27.4057C26.587 27.4839 26.6017 27.6188 26.6288 27.6642H26.422C26.4163 27.6188 26.3847 27.3694 26.3847 27.3558C26.3711 27.3003 26.3519 27.273 26.2829 27.273H26.1123V27.6653H25.9235V26.6847ZM25.52 27.1721C25.52 27.578 25.8466 27.9068 26.2479 27.9068C26.6525 27.9068 26.9792 27.5712 26.9792 27.1721C26.9792 26.7652 26.648 26.4421 26.2468 26.4421C25.8512 26.4421 25.5189 26.7606 25.5189 27.171M27.1193 27.1744C27.1193 27.6551 26.7271 28.0473 26.249 28.0473C25.7743 28.0473 25.3787 27.6596 25.3787 27.1744C25.3787 26.6801 25.7833 26.3015 26.249 26.3015C26.7181 26.3015 27.1182 26.6813 27.1182 27.1744" fill="#689F63"/>
<path fill-rule="evenodd" clip-rule="evenodd" d="M10.7304 10.2654C10.7304 10.0568 10.6207 9.8652 10.4412 9.76147L5.65385 6.99872C5.57377 6.95192 5.48335 6.92582 5.39072 6.92277H5.34122C5.24944 6.92617 5.1589 6.95111 5.07673 6.99872L0.289576 9.76147C0.201557 9.81283 0.128501 9.88644 0.0776919 9.97496C0.0268825 10.0635 9.48846e-05 10.1638 0 10.2659L0.0105115 17.7073C0.0105115 17.8105 0.0636344 17.9069 0.154056 17.9579C0.242217 18.0123 0.352984 18.0123 0.441145 17.9579L3.28717 16.3231C3.46689 16.2159 3.57652 16.0263 3.57652 15.8198V12.3434C3.57632 12.2416 3.60291 12.1415 3.65362 12.0534C3.70433 11.9652 3.77735 11.892 3.86531 11.8412L5.07696 11.1413C5.16484 11.0901 5.26468 11.0631 5.36631 11.0633C5.46532 11.0633 5.56637 11.0889 5.65385 11.1411L6.86494 11.8408C7.0442 11.944 7.15429 12.1356 7.15429 12.343V15.8192C7.15429 16.0255 7.26539 16.216 7.4442 16.3226L10.2884 17.9562C10.3322 17.9823 10.3822 17.9961 10.4331 17.9961C10.484 17.9961 10.534 17.9823 10.5778 17.9562C10.6213 17.9305 10.6575 17.8939 10.6826 17.85C10.7077 17.806 10.721 17.7563 10.7211 17.7056L10.7304 10.2654ZM33.3209 14.1398C33.3209 14.1916 33.2934 14.2396 33.2486 14.2652L31.6042 15.2159C31.5823 15.2285 31.5574 15.2352 31.5321 15.2352C31.5067 15.2352 31.4819 15.2285 31.4599 15.2159L29.8154 14.2652C29.7701 14.2394 29.743 14.1915 29.743 14.1398V12.2357C29.743 12.1838 29.7701 12.1359 29.8142 12.1099L31.4576 11.1576C31.5028 11.1315 31.5582 11.1315 31.6034 11.1576L33.248 12.1099C33.2932 12.1359 33.3203 12.1838 33.3203 12.2357L33.3209 14.1398ZM33.7651 0.0367723C33.721 0.0121876 33.6713 -0.000459294 33.6209 7.7434e-05C33.5705 0.000614162 33.5211 0.014316 33.4776 0.0398332C33.3894 0.0919818 33.3349 0.18721 33.3349 0.290373V7.6592C33.335 7.69483 33.3256 7.72984 33.3079 7.76071C33.2902 7.79158 33.2646 7.81722 33.2339 7.83504C33.2031 7.85285 33.1682 7.86222 33.1327 7.8622C33.0972 7.86218 33.0623 7.85277 33.0315 7.83492L31.8323 7.14213C31.7445 7.09122 31.6449 7.06442 31.5434 7.06442C31.442 7.06442 31.3424 7.09122 31.2545 7.14213L26.4656 9.91428C26.3777 9.96496 26.3047 10.038 26.2539 10.1259C26.2031 10.2139 26.1763 10.3137 26.1762 10.4154V15.9613C26.1762 16.1687 26.2866 16.3592 26.4656 16.4635L31.2545 19.2375C31.4333 19.3407 31.6535 19.3407 31.8329 19.2375L36.6219 16.4623C36.8004 16.358 36.9112 16.1676 36.9112 15.9601V2.13847C36.911 2.03513 36.8834 1.9337 36.8312 1.84463C36.7789 1.75556 36.7039 1.68207 36.6139 1.63173L33.7651 0.0367723ZM49.7124 12.1856C49.7999 12.1345 49.8725 12.0614 49.9229 11.9734C49.9733 11.8855 49.9999 11.7858 49.9999 11.6843V10.3402C49.9999 10.1334 49.8902 9.94263 49.712 9.83856L44.9535 7.06788C44.8655 7.01664 44.7654 6.98966 44.6636 6.98966C44.5618 6.98966 44.4618 7.01664 44.3737 7.06788L39.5859 9.83969C39.4062 9.94399 39.2965 10.1344 39.2965 10.3419V15.8855C39.2965 16.0941 39.4084 16.2868 39.5881 16.39L44.3455 19.1097C44.5206 19.2106 44.7354 19.2117 44.9129 19.1131L47.7905 17.5089C47.881 17.4579 47.9386 17.3616 47.9386 17.2573C47.9386 17.153 47.8832 17.0555 47.7928 17.0045L42.9756 14.2315C42.8851 14.1805 42.8298 14.0841 42.8298 13.981V12.2419C42.8298 12.1381 42.884 12.0424 42.9744 11.9907L44.4732 11.1235C44.5625 11.0713 44.6721 11.0713 44.7614 11.1235L46.2613 11.9907C46.3506 12.0417 46.4059 12.1381 46.4059 12.2412V13.6084C46.4059 13.7116 46.4613 13.808 46.5506 13.8601C46.6399 13.9111 46.7507 13.9111 46.84 13.859L49.7124 12.1856Z" fill="white"/>
<path fill-rule="evenodd" clip-rule="evenodd" d="M44.5935 11.9262C44.6103 11.9163 44.6294 11.9111 44.6489 11.9111C44.6684 11.9111 44.6875 11.9163 44.7043 11.9262L45.6232 12.4579C45.6576 12.4778 45.6786 12.5145 45.6786 12.5542V13.6187C45.6786 13.6584 45.6576 13.6951 45.6232 13.7151L44.7043 14.2468C44.6875 14.2566 44.6684 14.2618 44.6489 14.2618C44.6294 14.2618 44.6103 14.2566 44.5935 14.2468L43.6752 13.7151C43.6581 13.7055 43.6439 13.6915 43.6339 13.6746C43.624 13.6576 43.6187 13.6384 43.6187 13.6187V12.5542C43.6187 12.5145 43.639 12.4778 43.674 12.4579L44.5935 11.9262Z" fill="#689F63"/>
<path d="M28.6022 9.38415L15.1842 2.78735L8.3042 16.8645L21.7219 23.4617L28.6022 9.38415Z" fill="url(#paint0_linear_113_1467)"/>
<path d="M7.43311 11.3353L16.9076 24.1971L29.4378 14.9117L19.9627 2.05023L7.43311 11.3353Z" fill="url(#paint1_linear_113_1467)"/>
<path d="M13.418 7.01944V19.1984H23.7806V7.01944H13.418Z" fill="url(#paint2_linear_113_1467)"/>
</g>
<defs>
<linearGradient id="paint0_linear_113_1467" x1="21.8892" y1="6.07538" x2="14.9764" y2="20.1352" gradientUnits="userSpaceOnUse">
<stop offset="0.3" stop-color="#3E863D"/>
<stop offset="0.5" stop-color="#55934F"/>
<stop offset="0.8" stop-color="#5AAD45"/>
</linearGradient>
<linearGradient id="paint1_linear_113_1467" x1="12.2271" y1="17.8399" x2="24.7843" y2="8.58939" gradientUnits="userSpaceOnUse">
<stop offset="0.57" stop-color="#3E863D"/>
<stop offset="0.72" stop-color="#619857"/>
<stop offset="1" stop-color="#76AC64"/>
</linearGradient>
<linearGradient id="paint2_linear_113_1467" x1="13.4215" y1="13.1093" x2="23.7826" y2="13.1093" gradientUnits="userSpaceOnUse">
<stop offset="0.16" stop-color="#6BBF47"/>
<stop offset="0.38" stop-color="#79B461"/>
<stop offset="0.47" stop-color="#75AC64"/>
<stop offset="0.7" stop-color="#659E5A"/>
<stop offset="0.9" stop-color="#3E863D"/>
</linearGradient>
<clipPath id="clip0_113_1467">
<rect width="50" height="30.7143" fill="white"/>
</clipPath>
</defs>
</svg>
