<svg width="50" height="13" viewBox="0 0 50 13" fill="none" xmlns="http://www.w3.org/2000/svg">
<path d="M32.6501 0H30.0449V2.35672H32.6501V0Z" fill="#356388"/>
<path d="M44.2871 0H41.7349V2.50318H44.2871V0Z" fill="#39B54A"/>
<path d="M36.5115 10.1459H33.9592V12.6491H36.5115V10.1459Z" fill="#39B54A"/>
<path d="M32.6501 3.10234H30.0449V5.60552H32.6501V3.10234Z" fill="#39B54A"/>
<path d="M30.0451 6.35116V9.30704C30.0451 9.99941 29.6748 10.4255 29.0533 10.4255C28.4714 10.4255 28.0482 10.0527 28.0482 9.29373V0H27.678C26.1175 0 25.2844 1.01192 25.2844 2.98251V9.37361C25.2844 11.7703 26.6465 12.8488 28.8946 12.8488C31.0104 12.8488 32.6634 11.6238 32.6502 9.32036V6.36447H30.0451V6.35116Z" fill="#356388"/>
<path d="M20.9997 0H19.3467C17.7862 0 16.9531 1.01192 16.9531 2.98251V12.6624H19.7037V8.16197H20.9203C23.1949 8.16197 24.1602 6.56419 24.1602 3.91455C24.1602 1.33148 23.0626 0 20.9997 0ZM20.4972 5.91177H19.7037V2.27683H20.5104C21.1584 2.27683 21.4757 2.76948 21.4757 3.99444C21.4757 5.29929 21.1319 5.91177 20.4972 5.91177Z" fill="#3C9CD7"/>
<path d="M4.04655 0H2.39355C0.833113 0 0 1.01192 0 2.98251V12.6624H2.75059V8.16197H3.9672C6.24173 8.16197 7.20709 6.56419 7.20709 3.91455C7.20709 1.33148 6.10949 0 4.04655 0ZM3.53081 5.91177H2.73737V2.27683H3.54404C4.19201 2.27683 4.50939 2.76948 4.50939 3.99444C4.52261 5.29929 4.16556 5.91177 3.53081 5.91177Z" fill="#3C9CD7"/>
<path d="M15.2341 0C13.6737 0 12.8406 1.01192 12.8406 2.98251V4.79332V5.04631H10.8834V4.79332V0H10.5264C8.96592 0 8.13281 1.01192 8.13281 2.98251V12.6624H10.8834V7.80247V7.54949H12.8406V7.80247V12.6624H15.5779V0.0133151H15.2341V0Z" fill="#3C9CD7"/>
<path d="M50.0001 5.17945V3.19555H48.7173V1.05186H47.9107C46.7866 1.05186 46.1783 1.78418 46.1783 3.19555H45.3452V5.17945H46.1783V10.7717C46.1783 12.1697 47.1701 12.7955 48.4132 12.7955C48.9025 12.7955 49.524 12.7023 49.9868 12.5425V10.5054C49.7885 10.5453 49.5108 10.5586 49.2463 10.5586C48.8364 10.5586 48.7173 10.3589 48.7173 10.0127V5.17945H50.0001Z" fill="#356388"/>
<path d="M38.4687 2.88931C37.6355 2.88931 36.9743 3.24881 36.5115 3.91455V3.10235H35.6784C34.5543 3.10235 33.946 3.83466 33.946 5.24603V9.40025H36.4983V6.0316C36.4983 5.45907 36.776 5.03299 37.1992 5.03299C37.7678 5.03299 37.8868 5.47238 37.8868 5.87183V12.6491H40.4258V4.91316C40.4523 3.66157 39.5662 2.88931 38.4687 2.88931Z" fill="#356388"/>
<path d="M43.4672 3.19556C42.3432 3.19556 41.7349 3.92787 41.7349 5.33924V12.6491H44.2871V3.19556H43.4672Z" fill="#356388"/>
</svg>
