<svg width="50" height="43" viewBox="0 0 50 43" fill="none" xmlns="http://www.w3.org/2000/svg">
<path d="M48.0398 33.0429C45.376 34.4363 31.5518 40.1224 28.5739 41.6831C25.5959 43.2438 24.0011 43.1994 21.672 42.086C19.3429 40.9727 4.68206 35.01 2.02514 33.7396C0.686432 33.1112 0.00341797 32.5751 0.00341797 32.0731V27.0153C0.00341797 27.0153 19.1551 22.8592 22.2458 21.7391C25.3364 20.6189 26.4053 20.5916 29.0315 21.5547C31.6577 22.5177 47.4011 25.359 50 26.3016V31.2876C50 31.8067 49.4024 32.3121 48.0398 33.0395V33.0429Z" fill="#A32422"/>
<path d="M48.0398 28.0091C45.376 29.3957 31.5518 35.0817 28.5739 36.6151C25.5959 38.1485 24.0011 38.1348 21.672 37.0249C19.3429 35.915 4.68205 29.9523 2.02513 28.6921C-0.631794 27.432 -0.68302 26.5509 1.92268 25.5332C4.52837 24.5155 19.1551 18.7885 22.2457 17.6615C25.3364 16.5345 26.4053 16.5106 29.0315 17.4771C31.6577 18.4435 45.4238 23.9111 48.009 24.8639C50.5942 25.8167 50.7138 26.5987 48.0398 27.9818V28.0091Z" fill="#DC382C"/>
<path d="M48.0398 24.8058C45.376 26.1957 31.5518 31.8784 28.5739 33.4118C25.5959 34.9451 24.0148 34.9315 21.6857 33.8148C19.3566 32.698 4.68206 26.7695 2.02514 25.5025C0.686432 24.8673 0.00341797 24.3345 0.00341797 23.8291V18.7885C0.00341797 18.7885 19.1551 14.6187 22.2458 13.4985C25.3364 12.3784 26.4053 12.3476 29.0315 13.3243C31.6577 14.3011 47.4011 17.1151 50 18.0645V23.0505C50 23.5695 49.4024 24.0886 48.0398 24.8058Z" fill="#A32422"/>
<path d="M48.0399 19.7481C45.3762 21.1414 31.552 26.8241 28.574 28.3575C25.5961 29.8908 24.0013 29.8806 21.6722 28.7673C19.3431 27.654 4.68222 21.7152 2.0253 20.4448C-0.631628 19.1744 -0.679439 18.3103 1.92284 17.2927C4.52512 16.275 19.1553 10.5342 22.2459 9.438C25.3365 8.34176 26.4055 8.27346 29.0317 9.22626C31.6578 10.1791 45.424 15.6944 48.0092 16.6199C50.5944 17.5454 50.7139 18.3582 48.0399 19.7378V19.7481Z" fill="#DC382C"/>
<path d="M48.0398 16.2579C45.376 17.6512 31.5518 23.3373 28.5739 24.8673C25.5959 26.3972 24.0148 26.387 21.6857 25.2771C19.3566 24.1672 4.68206 18.2215 2.02514 16.9545C0.686432 16.3262 0.00341797 15.79 0.00341797 15.2846V10.2269C0.00341797 10.2269 19.1551 6.07072 22.2458 4.954C25.3364 3.83727 26.4053 3.80312 29.0315 4.76617C31.6577 5.72922 47.3943 8.57055 49.9932 9.51994V14.5059C50 15.0319 49.4024 15.5441 48.0398 16.2579Z" fill="#A32422"/>
<path d="M48.0398 11.207C45.376 12.573 31.5518 18.2933 28.5739 19.813C25.5959 21.3327 24.0011 21.3293 21.672 20.2228C19.3429 19.1163 4.68205 13.1638 2.02513 11.9003C-0.631794 10.6367 -0.68302 9.75901 1.92268 8.74132C4.52837 7.72363 19.1551 1.98631 22.2457 0.873001C25.3364 -0.240311 26.4053 -0.274462 29.0315 0.688587C31.6577 1.65164 45.4238 7.12599 48.009 8.07538C50.5942 9.02477 50.7138 9.81365 48.0398 11.1968V11.207Z" fill="#DC382C"/>
<path d="M25.7873 4.02511L29.0862 2.94253L28.1915 5.08037L31.5485 6.33711L27.2216 6.7879L26.2483 9.12381L24.6842 6.51811L19.6812 6.06732L23.4172 4.72178L22.2937 2.65225L25.7873 4.02511Z" fill="white"/>
<path d="M25.9956 17.6615L17.9087 14.3045L29.4926 12.5252L25.9956 17.6615Z" fill="white"/>
<path d="M14.7838 7.63483C18.1989 7.63483 20.9753 8.71057 20.9753 10.0254C20.9753 11.3402 18.192 12.4159 14.7838 12.4159C11.3756 12.4159 8.58887 11.3402 8.58887 10.0254C8.58887 8.71057 11.3653 7.63483 14.7838 7.63483Z" fill="white"/>
<path d="M36.6743 6.97574L43.5284 9.68389L36.6811 12.392L36.6743 6.97574Z" fill="#741113"/>
<path d="M36.6745 6.97574L36.6813 12.392L35.9368 12.6823L29.0862 9.97417L36.6745 6.97574Z" fill="#AC2724"/>
</svg>